<?xml version="1.0" encoding="UTF-8" standalone="no"?>
<svg
   xmlns:dc="http://purl.org/dc/elements/1.1/"
   xmlns:cc="http://creativecommons.org/ns#"
   xmlns:rdf="http://www.w3.org/1999/02/22-rdf-syntax-ns#"
   xmlns:svg="http://www.w3.org/2000/svg"
   xmlns="http://www.w3.org/2000/svg"
   xmlns:sodipodi="http://sodipodi.sourceforge.net/DTD/sodipodi-0.dtd"
   xmlns:inkscape="http://www.inkscape.org/namespaces/inkscape"
   width="40.730389mm"
   height="53.991268mm"
   viewBox="0 0 40.730388 53.991268"
   version="1.1"
   id="svg13793"
   inkscape:version="1.0.1 (3bc2e813f5, 2020-09-07)"
   sodipodi:docname="lari.svg">
  <defs
     id="defs13787">
    <inkscape:path-effect
       effect="fillet_chamfer"
       id="path-effect9313"
       is_visible="true"
       lpeversion="1"
       satellites_param="F,0,0,1,0,0,0,1 @ F,0,0,1,0,0,0,1 @ F,0,0,1,0,0,0,1 @ F,0,0,1,0,0,0,1"
       unit="px"
       method="auto"
       mode="F"
       radius="0"
       chamfer_steps="1"
       flexible="false"
       use_knot_distance="true"
       apply_no_radius="true"
       apply_with_radius="true"
       only_selected="false"
       hide_knots="false" />
    <inkscape:path-effect
       effect="fillet_chamfer"
       id="path-effect10699"
       is_visible="true"
       lpeversion="1"
       satellites_param="F,0,0,1,0,0,0,1 @ F,0,0,1,0,0,0,1 @ F,0,0,1,0,0,0,1 @ F,0,0,1,0,0,0,1"
       unit="px"
       method="auto"
       mode="F"
       radius="0"
       chamfer_steps="1"
       flexible="false"
       use_knot_distance="true"
       apply_no_radius="true"
       apply_with_radius="true"
       only_selected="false"
       hide_knots="false" />
  </defs>
  <sodipodi:namedview
     id="base"
     pagecolor="#ffffff"
     bordercolor="#666666"
     borderopacity="1.0"
     inkscape:pageopacity="0.0"
     inkscape:pageshadow="2"
     inkscape:zoom="0.35"
     inkscape:cx="-32.977294"
     inkscape:cy="483.58974"
     inkscape:document-units="mm"
     inkscape:current-layer="layer1"
     inkscape:document-rotation="0"
     showgrid="false"
     fit-margin-top="0"
     fit-margin-left="0"
     fit-margin-right="0"
     fit-margin-bottom="0"
     inkscape:window-width="1366"
     inkscape:window-height="721"
     inkscape:window-x="0"
     inkscape:window-y="20"
     inkscape:window-maximized="1" />
  <metadata
     id="metadata13790">
    <rdf:RDF>
      <cc:Work
         rdf:about="">
        <dc:format>image/svg+xml</dc:format>
        <dc:type
           rdf:resource="http://purl.org/dc/dcmitype/StillImage" />
        <dc:title></dc:title>
      </cc:Work>
    </rdf:RDF>
  </metadata>
  <g
     inkscape:label="Layer 1"
     inkscape:groupmode="layer"
     id="layer1"
     transform="translate(-114.55857,-20.21688)">
    <g
       id="g10697"
       transform="matrix(0.20902233,0,0,0.20902233,39.110464,-215.87671)">
      <rect
         style="opacity:1;fill:#0a0a0a;fill-opacity:1;stroke:none;stroke-width:2.76889;stroke-linecap:round;stroke-linejoin:round;stroke-miterlimit:4;stroke-dasharray:none;stroke-dashoffset:0;stroke-opacity:1"
         id="rect10589"
         width="27.732517"
         height="18.265842"
         x="471.18509"
         y="1163.3573"
         ry="4.7538099" />
      <g
         id="g10597"
         transform="rotate(97.395276,363.94855,1457.0709)">
        <path
           id="path10591"
           style="opacity:0.996;fill:#6f8a91;stroke-width:0.50074;stroke-linejoin:round"
           d="m 261.77156,1384.318 c 0.45479,-0.1 0.91735,0.1321 1.10943,0.5562 l 8.06234,17.8039 -6.70137,1.4717 -1.98007,0.4349 -3.57402,0.7849 -3.7199,0.817 -5.36079,1.1773 -2.92988,-18.9149 c -0.0688,-0.4438 0.21932,-0.8642 0.65783,-0.9605 l 3.36405,-0.7388 2.80835,-0.6167 4.66678,-1.0249 1.79887,-0.3952 z" />
        <path
           id="path10593"
           style="opacity:0.996;fill:#53676c;fill-opacity:1;stroke:none;stroke-width:0.37249;stroke-linecap:butt;stroke-linejoin:round;stroke-miterlimit:4;stroke-dasharray:none;stroke-dashoffset:0;stroke-opacity:1"
           d="m 262.17481,1395.0399 h 9.38093 c 3.65006,0 5.12862,3.1731 5.12862,7.0872 v 2.2345 c 0,0.5017 -0.37929,0.9084 -0.84717,0.9084 h -20.90463 c -0.46789,0 -0.84718,-0.4067 -0.84718,-0.9084 v -2.2345 c 0,-3.9141 4.43936,-7.0872 8.08943,-7.0872 z"
           sodipodi:nodetypes="cccccsssc" />
        <rect
           style="opacity:0.996;fill:#374548;fill-opacity:1;stroke:none;stroke-width:0.434278;stroke-linecap:butt;stroke-linejoin:round;stroke-miterlimit:4;stroke-dasharray:none;stroke-dashoffset:0;stroke-opacity:1"
           id="rect10595"
           width="28.074966"
           height="3.6834583"
           x="248.60939"
           y="1405.27"
           ry="0.79279894" />
      </g>
      <path
         style="color:#000000;font-style:normal;font-variant:normal;font-weight:normal;font-stretch:normal;font-size:medium;line-height:normal;font-family:sans-serif;font-variant-ligatures:normal;font-variant-position:normal;font-variant-caps:normal;font-variant-numeric:normal;font-variant-alternates:normal;font-variant-east-asian:normal;font-feature-settings:normal;font-variation-settings:normal;text-indent:0;text-align:start;text-decoration:none;text-decoration-line:none;text-decoration-style:solid;text-decoration-color:#000000;letter-spacing:normal;word-spacing:normal;text-transform:none;writing-mode:lr-tb;direction:ltr;text-orientation:mixed;dominant-baseline:auto;baseline-shift:baseline;text-anchor:start;white-space:normal;shape-padding:0;shape-margin:0;inline-size:0;clip-rule:nonzero;display:inline;overflow:visible;visibility:visible;opacity:1;isolation:auto;mix-blend-mode:normal;color-interpolation:sRGB;color-interpolation-filters:linearRGB;solid-color:#000000;solid-opacity:1;vector-effect:none;fill:#000a19;fill-opacity:1;fill-rule:nonzero;stroke:none;stroke-width:26.646;stroke-linecap:butt;stroke-linejoin:round;stroke-miterlimit:4;stroke-dasharray:none;stroke-dashoffset:0;stroke-opacity:1;color-rendering:auto;image-rendering:auto;shape-rendering:auto;text-rendering:auto;enable-background:accumulate;stop-color:#000000;stop-opacity:1"
         d="m 475.67773,1290.5117 -19.47656,18.1836 26.0293,27.877 -43.76172,12.7871 7.47266,25.5761 64.52734,-18.8554 a 13.324332,13.324332 0 0 0 6.00195,-21.8809 z"
         id="path10599" />
      <g
         id="g10607"
         transform="translate(-54.939977,-12.836248)">
        <path
           id="path10601"
           style="opacity:0.996;fill:#6f8a91;stroke-width:0.50074;stroke-linejoin:round"
           d="m 443.63004,1385.2711 -0.11486,1.2358 -18.20302,12.3054 -7.57351,-16.4949 16.55558,-9.6059 1.13381,0.2637 z"
           sodipodi:nodetypes="ccccccc" />
        <path
           id="path10603"
           style="opacity:0.996;fill:#53676c;fill-opacity:1;stroke:none;stroke-width:0.37249;stroke-linecap:butt;stroke-linejoin:round;stroke-miterlimit:4;stroke-dasharray:none;stroke-dashoffset:0;stroke-opacity:1"
           d="m 433.396,1389.4886 9.38091,-0.01 c 3.65007,-10e-5 5.13073,3.1699 5.13325,7.084 l 10e-4,2.2344 c 3.9e-4,0.5018 -0.37875,0.9087 -0.84661,0.9091 l -20.90459,0.014 c -0.46793,0 -0.84748,-0.4061 -0.8478,-0.9078 l -0.001,-2.2345 c -0.003,-3.9141 4.43476,-7.0901 8.08482,-7.0924 z"
           sodipodi:nodetypes="cccccsssc" />
        <path
           style="fill:none;stroke:#374548;stroke-width:3.683;stroke-linecap:round;stroke-linejoin:round;stroke-miterlimit:4;stroke-dasharray:none;stroke-opacity:1"
           d="m 417.73865,1382.3174 7.57351,16.4949 22.599,-0.015"
           id="path10605"
           sodipodi:nodetypes="ccc" />
      </g>
      <rect
         style="fill:#2a7fff;fill-opacity:1;stroke:none;stroke-width:3.0453;stroke-linecap:round;stroke-miterlimit:4;stroke-dasharray:none"
         id="rect10609"
         width="21.030003"
         height="94.993904"
         x="-1308.3708"
         y="-362.56729"
         ry="7.8068867"
         transform="matrix(-0.14814885,-0.98896507,-0.98892906,0.14838904,0,0)" />
      <rect
         style="fill:#2a7fff;fill-opacity:1;stroke:none;stroke-width:3.0453;stroke-linecap:round;stroke-miterlimit:4;stroke-dasharray:none"
         id="rect10611"
         width="21.030003"
         height="94.993904"
         x="-1265.959"
         y="-300.8392"
         ry="6.3732457"
         transform="matrix(-0.14814885,-0.98896507,-0.98892906,0.14838904,0,0)" />
      <rect
         style="fill:#ffccaa;fill-opacity:1;stroke:none;stroke-width:1;stroke-linecap:round"
         id="rect10613"
         width="18.260572"
         height="24.151478"
         x="-984.24548"
         y="861.26215"
         transform="matrix(-0.90630779,-0.42261826,-0.42261826,0.90630779,0,0)" />
      <path
         id="path10615"
         style="fill:#ffb380;fill-opacity:1;stroke:none;stroke-width:0.324116;stroke-linecap:round"
         d="m 526.94667,1198.8824 -19.69571,-0.9706 -1.07223,2.2994 19.69572,0.9706 z"
         sodipodi:nodetypes="ccccc" />
      <path
         id="path10617"
         style="opacity:0.997;fill:#2a7fff;fill-opacity:1;stroke:none;stroke-width:2.38504;stroke-linecap:round;stroke-miterlimit:4;stroke-dasharray:none;stroke-opacity:1"
         d="m 543.28933,1218.7352 -40.44499,86.7346 -65.11968,-30.3658 40.44499,-86.7346 z"
         inkscape:path-effect="#path-effect10699"
         inkscape:original-d="m 543.28933,1218.7352 -40.44499,86.7346 -65.11968,-30.3658 40.44499,-86.7346 z"
         sodipodi:nodetypes="ccccc" />
      <rect
         style="fill:#589bff;fill-opacity:1;stroke:none;stroke-width:1.5034;stroke-linecap:round"
         id="rect10619"
         width="16.99246"
         height="8.7516718"
         x="-955.06213"
         y="869.97955"
         ry="2.7036681"
         transform="matrix(-0.90630779,-0.42261826,-0.42261826,0.90630779,0,0)" />
      <rect
         style="fill:#589bff;fill-opacity:1;stroke:none;stroke-width:1.5034;stroke-linecap:round"
         id="rect10621"
         width="16.99246"
         height="8.7516718"
         x="-1012.1606"
         y="869.97955"
         ry="2.7036681"
         transform="matrix(-0.90630779,-0.42261826,-0.42261826,0.90630779,0,0)" />
      <path
         id="path10623"
         style="opacity:0.997;fill:none;fill-opacity:1;stroke:#0a182d;stroke-width:3.82969;stroke-linecap:round;stroke-miterlimit:4;stroke-dasharray:none;stroke-opacity:1"
         d="m 493.03747,1193.6765 -2.3266,4.9894 c -1.17783,2.5259 1.34987,6.1973 5.64568,8.2005 l 27.55191,12.8476 c 4.29583,2.0032 8.73307,1.5796 9.91091,-0.9463 l 2.3266,-4.9894"
         sodipodi:nodetypes="cssssc" />
      <path
         id="path10625"
         style="opacity:0.997;fill:#0066ff;fill-opacity:1;stroke:none;stroke-width:2.59244;stroke-linecap:round;stroke-miterlimit:4;stroke-dasharray:none;stroke-opacity:1"
         d="m 542.57561,1228.3516 -4.03018,8.6427 c -0.9025,1.9354 -3.37717,2.8837 -6.18317,2.3699 l -19.8407,-3.6332 a 34.485863,25.117697 25 0 1 -10.85386,-3.4402 28.121781,25.117697 25 0 1 -0.47577,-0.221 28.121766,25.117697 25 0 1 -7e-4,-4e-4 28.121781,25.117697 25 0 1 -0.16741,-0.079 34.485863,25.117697 25 0 1 -9.58224,-6.0894 L 475.905,1213.0378 c -2.19727,-1.8193 -3.06151,-4.3245 -2.15901,-6.26 l 4.03018,-8.6427 5.97937,2.7882 52.84068,24.6401 z m -48.65319,-1.0607 a 28.121766,25.117697 25 0 0 0.1496,0.1315 28.121766,25.117697 25 0 0 0.20109,0.1732 28.121781,25.117697 25 0 1 -0.20109,-0.1732 28.121781,25.117697 25 0 1 -0.1496,-0.1315 z m 14.20066,7.1185 a 28.121781,25.117697 25 0 1 -0.27087,-0.058 28.121766,25.117697 25 0 0 0.27087,0.058 z m -12.5493,-5.7614 a 28.121766,25.117697 25 0 0 0.1926,0.1461 28.121781,25.117697 25 0 1 -0.1926,-0.1461 z m 0.47263,0.3545 a 28.121766,25.117697 25 0 0 0.19541,0.1419 28.121766,25.117697 25 0 0 0.22147,0.1584 28.121781,25.117697 25 0 1 -0.22147,-0.1584 28.121781,25.117697 25 0 1 -0.19541,-0.1419 z m 0.87785,0.6218 a 28.121766,25.117697 25 0 0 0.19466,0.1327 28.121781,25.117697 25 0 1 -0.19466,-0.1327 z m 8.9722,4.2291 a 28.121781,25.117697 25 0 1 -0.19609,-0.057 28.121766,25.117697 25 0 0 0.19609,0.057 z m -8.4814,-3.9009 a 28.121766,25.117697 25 0 0 0.20466,0.133 28.121781,25.117697 25 0 1 -0.20466,-0.133 z m 8.0182,3.7632 a 28.121781,25.117697 25 0 1 -0.26515,-0.083 28.121781,25.117697 25 0 1 -0.2657,-0.085 28.121766,25.117697 25 0 0 0.2657,0.085 28.121766,25.117697 25 0 0 0.26515,0.083 z m -7.50088,-3.4304 a 28.121766,25.117697 25 0 0 0.12825,0.08 28.121781,25.117697 25 0 1 -0.12825,-0.08 z m 5.83369,2.8673 a 28.121781,25.117697 25 0 1 -0.17866,-0.066 28.121766,25.117697 25 0 0 0.17866,0.066 z m -4.47537,-2.0615 a 28.121766,25.117697 25 0 0 0.22041,0.1226 28.121781,25.117697 25 0 1 -0.22041,-0.1226 z m 0.81538,0.4409 a 28.121766,25.117697 25 0 0 0.16701,0.089 28.121766,25.117697 25 0 0 0.22102,0.1141 28.121781,25.117697 25 0 1 -0.22102,-0.1141 28.121781,25.117697 25 0 1 -0.16701,-0.089 z" />
      <path
         id="path10627"
         style="opacity:0.997;fill:#589bff;fill-opacity:1;stroke:none;stroke-width:3.15862;stroke-linecap:round;stroke-miterlimit:4;stroke-dasharray:none;stroke-opacity:1"
         d="m 547.56124,1220.7273 -5.77229,12.3787 c -1.29262,2.772 -4.17584,4.4384 -7.20414,4.1645 l -21.41235,-1.9375 a 35.736401,35.975144 25 0 1 -11.49336,-3.0375 29.141542,35.975144 25 0 1 -0.49315,-0.2289 29.141527,35.975144 25 0 1 -7.2e-4,-3e-4 29.141542,35.975144 25 0 1 -0.17338,-0.082 35.736401,35.975144 25 0 1 -9.68377,-6.8375 l -15.24778,-15.1574 c -2.15644,-2.1437 -2.73318,-5.4236 -1.44056,-8.1956 l 5.77229,-12.3787 6.19619,2.8893 54.75682,25.5335 z m -53.69771,5.9353 a 29.141527,35.975144 25 0 0 0.14575,0.1563 29.141527,35.975144 25 0 0 0.19607,0.2058 29.141542,35.975144 25 0 1 -0.19607,-0.2058 29.141542,35.975144 25 0 1 -0.14575,-0.1563 z m 14.64026,7.5382 a 29.141542,35.975144 25 0 1 -0.29073,-0.038 29.141527,35.975144 25 0 0 0.29073,0.038 z m -13.0177,-5.9417 a 29.141527,35.975144 25 0 0 0.19109,0.1697 29.141542,35.975144 25 0 1 -0.19109,-0.1697 z m 0.46941,0.411 a 29.141527,35.975144 25 0 0 0.19434,0.1646 29.141527,35.975144 25 0 0 0.22137,0.1815 29.141542,35.975144 25 0 1 -0.22137,-0.1815 29.141542,35.975144 25 0 1 -0.19434,-0.1646 z m 0.87743,0.7136 a 29.141527,35.975144 25 0 0 0.19554,0.1508 29.141542,35.975144 25 0 1 -0.19554,-0.1508 z m 9.29057,4.3974 a 29.141542,35.975144 25 0 1 -0.2082,-0.049 29.141527,35.975144 25 0 0 0.2082,0.049 z m -8.79749,-4.024 a 29.141527,35.975144 25 0 0 0.20626,0.1502 29.141542,35.975144 25 0 1 -0.20626,-0.1502 z m 8.30549,3.9071 a 29.141542,35.975144 25 0 1 -0.28095,-0.072 29.141542,35.975144 25 0 1 -0.28114,-0.076 29.141527,35.975144 25 0 0 0.28114,0.076 29.141527,35.975144 25 0 0 0.28095,0.072 z m -7.78293,-3.5333 a 29.141527,35.975144 25 0 0 0.12978,0.089 29.141542,35.975144 25 0 1 -0.12978,-0.089 z m 6.02293,3.0191 a 29.141542,35.975144 25 0 1 -0.18785,-0.062 29.141527,35.975144 25 0 0 0.18785,0.062 z m -4.64111,-2.1289 a 29.141527,35.975144 25 0 0 0.22573,0.1329 29.141542,35.975144 25 0 1 -0.22573,-0.1329 z m 0.83566,0.4769 a 29.141527,35.975144 25 0 0 0.1732,0.092 29.141527,35.975144 25 0 0 0.2275,0.1215 29.141542,35.975144 25 0 1 -0.2275,-0.1215 29.141542,35.975144 25 0 1 -0.1732,-0.092 z" />
      <path
         id="path10629"
         style="fill:#d5e5ff;fill-opacity:1;stroke:none;stroke-width:1.33002;stroke-linecap:round"
         d="m 537.47122,1216.0222 -5.77229,12.3787 c -1.29262,2.7721 -3.65569,4.681 -5.90492,4.7703 l -15.90365,0.6313 a 24.996982,35.975146 25 0 1 -15.28018,-7.1252 l -9.73908,-12.5887 c -1.37737,-1.7804 -1.43397,-4.8177 -0.14135,-7.5898 l 5.77229,-12.3787 z" />
      <g
         id="g10635"
         transform="matrix(-0.90630779,-0.42261826,-0.42261826,0.90630779,990.35125,662.38539)">
        <path
           id="path10631"
           style="opacity:0.997;fill:#ffccaa;fill-opacity:1;stroke:none;stroke-width:0.857403;stroke-linecap:round"
           d="m 187.88037,693.06329 h 29.00734 v 5.72573 c 0,2.89864 -2.34332,5.24846 -5.23394,5.24846 h -18.53945 c -2.89063,0 -5.23395,-2.34982 -5.23395,-5.24846 z"
           sodipodi:nodetypes="ccssssc" />
        <path
           id="path10633"
           style="opacity:0.997;fill:none;fill-opacity:1;stroke:#80b3ff;stroke-width:2.03335;stroke-linecap:round;stroke-miterlimit:4;stroke-dasharray:none;stroke-opacity:1"
           d="m 216.88771,693.06329 v 5.72573 c 0,2.89864 -2.34332,5.24846 -5.23394,5.24846 h -18.53945 c -2.89063,0 -5.23395,-2.34982 -5.23395,-5.24846 v -5.72573"
           sodipodi:nodetypes="cssssc" />
      </g>
      <path
         style="fill:none;stroke:#0044aa;stroke-width:1;stroke-linecap:round;stroke-linejoin:round;stroke-miterlimit:4;stroke-dasharray:none;stroke-opacity:1"
         d="m 533.81551,1237.8688 -1.93879,5.3408"
         id="path10637"
         sodipodi:nodetypes="cc" />
      <path
         id="path10639"
         style="fill:#00112b;fill-opacity:1;stroke:none;stroke-width:0.5;stroke-linecap:round;stroke-linejoin:round;stroke-miterlimit:4;stroke-dasharray:1, 1;stroke-dashoffset:0;stroke-opacity:1"
         d="m 440.19799,1278.0092 58.83103,27.4333 -9.14837,19.6188 c -2.40635,5.1604 -8.54049,7.3931 -13.70097,4.9867 l -49.48717,-23.0762 z"
         sodipodi:nodetypes="ccsscc" />
      <path
         style="fill:none;stroke:#00378e;stroke-width:0.5;stroke-linecap:round;stroke-linejoin:miter;stroke-miterlimit:4;stroke-dasharray:1, 1;stroke-dashoffset:0;stroke-opacity:1"
         d="m 463.34862,1298.3947 c 0,0 -2.66482,5.7147 -3.98622,8.5485 -1.06867,2.2918 1.55781,3.4255 1.55781,3.4255"
         id="path10641"
         sodipodi:nodetypes="csc" />
      <g
         id="g10649"
         transform="rotate(17.073556,441.44499,1276.4327)">
        <rect
           style="fill:#00112b;fill-opacity:1;stroke:none;stroke-width:0.818596;stroke-linecap:round;stroke-linejoin:round;stroke-miterlimit:4;stroke-dasharray:1.6372, 1.6372;stroke-dashoffset:0;stroke-opacity:1"
           id="rect10643"
           width="26.646439"
           height="109.17054"
           x="939.06488"
           y="972.23389"
           transform="rotate(25)" />
        <path
           style="fill:none;stroke:#00378e;stroke-width:0.5;stroke-linecap:round;stroke-linejoin:miter;stroke-miterlimit:4;stroke-dasharray:1, 1;stroke-dashoffset:0;stroke-opacity:1"
           d="m 419.71912,1384.9771 -24.14987,-11.2613"
           id="path10645"
           sodipodi:nodetypes="cc" />
        <path
           style="fill:none;stroke:#00378e;stroke-width:0.5;stroke-linecap:butt;stroke-linejoin:miter;stroke-miterlimit:4;stroke-dasharray:none;stroke-dashoffset:0;stroke-opacity:1"
           d="m 446.42879,1285.2837 -4.15705,8.9148 c -3.25931,6.9896 -11.0573,3.076 -11.0573,3.076"
           id="path10647"
           sodipodi:nodetypes="csc" />
      </g>
      <path
         style="fill:none;stroke:#00378e;stroke-width:0.5;stroke-linecap:butt;stroke-linejoin:miter;stroke-miterlimit:4;stroke-dasharray:none;stroke-opacity:1"
         d="m 467.07454,1297.1707 -10.96652,23.5178"
         id="path10651"
         sodipodi:nodetypes="cc" />
      <path
         style="fill:none;stroke:#00378e;stroke-width:0.5;stroke-linecap:butt;stroke-linejoin:miter;stroke-miterlimit:4;stroke-dasharray:none;stroke-dashoffset:0;stroke-opacity:1"
         d="m 489.227,1305.2408 -4.15705,8.9148 c -3.25931,6.9896 4.75117,10.4476 4.75117,10.4476"
         id="path10653"
         sodipodi:nodetypes="csc" />
      <path
         id="path10655"
         style="opacity:0.999;fill:#2a7fff;fill-opacity:1;stroke:#0066ff;stroke-width:1;stroke-linecap:round;stroke-miterlimit:4;stroke-dasharray:none;stroke-opacity:1"
         d="m 503.23003,1270.8538 -5.43977,11.6656 c -0.94472,2.0259 -0.0682,4.4341 1.95773,5.3788 l 6.2694,2.9235 c 2.02594,0.9447 2.90242,3.3529 1.95774,5.3788 l -5.13765,11.0177 -59.9335,-27.9474 5.13765,-11.0177 c 0.94468,-2.0259 3.35289,-2.9025 5.37883,-1.9578 l 6.26941,2.9235 c 2.02593,0.9447 4.4341,0.068 5.37883,-1.9577 l 5.43977,-11.6657 c 0.94472,-2.0259 3.35288,-2.9024 5.37882,-1.9577 l 25.38501,11.8372 c 2.02594,0.9447 2.90245,3.3529 1.95773,5.3789 z"
         sodipodi:nodetypes="cccccccccsssssc" />
      <rect
         style="opacity:0.999;fill:#0066ff;fill-opacity:1;stroke:none;stroke-width:1.1084;stroke-linecap:round;stroke-linejoin:round;stroke-miterlimit:4;stroke-dasharray:none"
         id="rect10657"
         width="77.158852"
         height="10.279471"
         x="-1010.1008"
         y="970.64618"
         ry="2.1806619"
         transform="matrix(-0.90630779,-0.42261826,-0.42261826,0.90630779,0,0)" />
      <g
         id="g10681"
         transform="translate(337.70424,12.700001)">
        <rect
           style="fill:#1a1a1a;stroke:none;stroke-width:1.40042;stroke-linecap:round"
           id="rect10659"
           width="27.699371"
           height="42.993782"
           x="-177.30457"
           y="1128.1941"
           ry="14.585485"
           transform="scale(-1,1)" />
        <rect
           style="fill:#1a1a1a;stroke:none;stroke-width:1.40042;stroke-linecap:round"
           id="rect10661"
           width="27.699371"
           height="42.993782"
           x="-218.11436"
           y="1128.1941"
           ry="14.585485"
           transform="scale(-1,1)" />
        <rect
           style="fill:#ffb380;stroke:none;stroke-width:0.922161;stroke-linecap:round"
           id="rect10663"
           width="66.613503"
           height="14.158038"
           x="-217.89369"
           y="1148.2316"
           ry="7.0790191"
           transform="scale(-1,1)" />
        <path
           id="path10665"
           style="fill:#ffccaa;stroke:none;stroke-width:0.933511;stroke-linecap:round"
           d="m 201.08528,1134.5665 h -26.47223 c -7.51627,0 -13.56728,6.051 -13.56728,13.5673 v 24.4814 c 0,7.5162 6.05101,13.5672 13.56728,13.5672 h 26.47223 c 7.51627,0 13.56728,-6.051 13.56728,-13.5672 v -24.4814 c 0,-7.5163 -6.05101,-13.5673 -13.56728,-13.5673 z"
           sodipodi:nodetypes="sssssssss" />
        <rect
           style="fill:#1a1a1a;stroke:none;stroke-width:1.57686;stroke-linecap:round"
           id="rect10667"
           width="45.354275"
           height="33.290936"
           x="-194.95946"
           y="1116.8137"
           ry="9.9788427"
           transform="scale(-1,1)" />
        <rect
           style="fill:#1a1a1a;stroke:none;stroke-width:1.21774;stroke-linecap:round"
           id="rect10669"
           width="27.754078"
           height="32.444138"
           x="-218.11436"
           y="1118.0513"
           ry="7.712872"
           transform="scale(-1,1)" />
        <g
           id="g10675"
           transform="matrix(-1.4348278,0,0,1.4348278,477.61668,216.9775)">
          <circle
             style="fill:#1a1a1a;fill-opacity:1;stroke:none;stroke-width:1;stroke-linecap:round"
             id="circle10671"
             cx="189.89961"
             cy="654.83435"
             r="2.6601181" />
          <circle
             style="fill:#1a1a1a;fill-opacity:1;stroke:none;stroke-width:1;stroke-linecap:round"
             id="circle10673"
             cx="211.05557"
             cy="654.83435"
             r="2.6601181" />
        </g>
        <path
           style="fill:none;stroke:#ff8080;stroke-width:1.42349;stroke-linecap:round;stroke-linejoin:miter;stroke-miterlimit:4;stroke-dasharray:none;stroke-opacity:1"
           d="m 202.91629,1172.1712 v 2.1246 c 0,1.76 -1.42675,3.1868 -3.18676,3.1868 h -19.52734 c -1.76,0 -3.18676,-1.4268 -3.18676,-3.1868 v -2.1246"
           id="path10677"
           sodipodi:nodetypes="cssssc" />
        <path
           style="fill:none;stroke:#ff9955;stroke-width:0.5;stroke-linecap:round;stroke-linejoin:miter;stroke-miterlimit:4;stroke-dasharray:none;stroke-opacity:1"
           d="m 191.75495,1179.2978 h -3.57817"
           id="path10679" />
      </g>
      <path
         style="fill:none;stroke:#00378e;stroke-width:0.5;stroke-linecap:round;stroke-linejoin:miter;stroke-miterlimit:4;stroke-dasharray:1, 1;stroke-dashoffset:0;stroke-opacity:1"
         d="m 446.03067,1347.1498 7.47265,25.5761"
         id="path10683" />
      <g
         id="g10691"
         transform="matrix(0.93328191,-0.13917944,0.13917944,0.93328191,-118.51069,-45.899613)">
        <rect
           style="opacity:1;fill:#ffb380;fill-opacity:1;stroke:none;stroke-width:0.364622;stroke-linecap:round;stroke-linejoin:round;stroke-miterlimit:4;stroke-dasharray:0.729246, 0.729246;stroke-dashoffset:0;stroke-opacity:1"
           id="rect10685"
           width="20.088226"
           height="14.153411"
           x="314.60873"
           y="1390.6959"
           ry="3.4201257" />
        <rect
           style="opacity:1;fill:#ffccaa;fill-opacity:1;stroke:none;stroke-width:0.421714;stroke-linecap:round;stroke-linejoin:round;stroke-miterlimit:4;stroke-dasharray:0.843429, 0.843429;stroke-dashoffset:0;stroke-opacity:1"
           id="rect10687"
           width="26.871401"
           height="14.153411"
           x="307.82556"
           y="1388.1659"
           ry="3.8947747" />
        <rect
           style="opacity:1;fill:#ffccaa;fill-opacity:1;stroke:none;stroke-width:0.287865;stroke-linecap:round;stroke-linejoin:round;stroke-miterlimit:4;stroke-dasharray:0.575733, 0.575733;stroke-dashoffset:0;stroke-opacity:1"
           id="rect10689"
           width="12.520885"
           height="14.153411"
           x="322.17609"
           y="1391.202"
           ry="3.4201257" />
      </g>
      <path
         style="fill:none;stroke:#0066ff;stroke-width:3;stroke-linecap:round;stroke-linejoin:miter;stroke-miterlimit:4;stroke-dasharray:none;stroke-opacity:1"
         d="m 388.73725,1205.5597 1.64347,10.9707"
         id="path10693" />
      <rect
         style="opacity:1;fill:#0a0a0a;fill-opacity:1;stroke:none;stroke-width:2.24425;stroke-linecap:round;stroke-linejoin:round;stroke-miterlimit:4;stroke-dasharray:none;stroke-dashoffset:0;stroke-opacity:1"
         id="rect10695"
         width="24.478733"
         height="13.594748"
         x="458.1474"
         y="1163.8788"
         ry="6.7973738" />
    </g>
  </g>
</svg>
