<?xml version="1.0" encoding="UTF-8" standalone="no"?>
<svg
   xmlns:dc="http://purl.org/dc/elements/1.1/"
   xmlns:cc="http://creativecommons.org/ns#"
   xmlns:rdf="http://www.w3.org/1999/02/22-rdf-syntax-ns#"
   xmlns:svg="http://www.w3.org/2000/svg"
   xmlns="http://www.w3.org/2000/svg"
   xmlns:sodipodi="http://sodipodi.sourceforge.net/DTD/sodipodi-0.dtd"
   xmlns:inkscape="http://www.inkscape.org/namespaces/inkscape"
   width="159.9977mm"
   height="15.003141mm"
   viewBox="0 0 159.99769 15.003141"
   version="1.1"
   id="svg13793"
   inkscape:version="1.0.1 (3bc2e813f5, 2020-09-07)"
   sodipodi:docname="semak.svg">
  <defs
     id="defs13787">
    <inkscape:path-effect
       effect="fillet_chamfer"
       id="path-effect9313"
       is_visible="true"
       lpeversion="1"
       satellites_param="F,0,0,1,0,0,0,1 @ F,0,0,1,0,0,0,1 @ F,0,0,1,0,0,0,1 @ F,0,0,1,0,0,0,1"
       unit="px"
       method="auto"
       mode="F"
       radius="0"
       chamfer_steps="1"
       flexible="false"
       use_knot_distance="true"
       apply_no_radius="true"
       apply_with_radius="true"
       only_selected="false"
       hide_knots="false" />
    <inkscape:path-effect
       effect="fillet_chamfer"
       id="path-effect10699"
       is_visible="true"
       lpeversion="1"
       satellites_param="F,0,0,1,0,0,0,1 @ F,0,0,1,0,0,0,1 @ F,0,0,1,0,0,0,1 @ F,0,0,1,0,0,0,1"
       unit="px"
       method="auto"
       mode="F"
       radius="0"
       chamfer_steps="1"
       flexible="false"
       use_knot_distance="true"
       apply_no_radius="true"
       apply_with_radius="true"
       only_selected="false"
       hide_knots="false" />
  </defs>
  <sodipodi:namedview
     id="base"
     pagecolor="#ffffff"
     bordercolor="#666666"
     borderopacity="1.0"
     inkscape:pageopacity="0.0"
     inkscape:pageshadow="2"
     inkscape:zoom="0.98994949"
     inkscape:cx="233.45084"
     inkscape:cy="126.54604"
     inkscape:document-units="mm"
     inkscape:current-layer="layer1"
     inkscape:document-rotation="0"
     showgrid="false"
     fit-margin-top="0"
     fit-margin-left="0"
     fit-margin-right="0"
     fit-margin-bottom="0"
     inkscape:window-width="1366"
     inkscape:window-height="721"
     inkscape:window-x="0"
     inkscape:window-y="20"
     inkscape:window-maximized="1" />
  <metadata
     id="metadata13790">
    <rdf:RDF>
      <cc:Work
         rdf:about="">
        <dc:format>image/svg+xml</dc:format>
        <dc:type
           rdf:resource="http://purl.org/dc/dcmitype/StillImage" />
        <dc:title></dc:title>
      </cc:Work>
    </rdf:RDF>
  </metadata>
  <g
     inkscape:label="Layer 1"
     inkscape:groupmode="layer"
     id="layer1"
     transform="translate(-76.642799,-133.86517)">
    <rect
       style="fill:none;stroke-width:1.2142;stroke-linejoin:round"
       id="rect14974"
       width="159.9977"
       height="15.003"
       x="76.642799"
       y="133.86523"
       ry="0.82978839" />
    <g
       id="g15015"
       transform="translate(6.50529,-20.753907)">
      <g
         id="g11528"
         transform="matrix(0.4590808,0,0,0.4590808,-184.04925,-148.74761)">
        <path
           id="path7995"
           style="opacity:0.997;fill:#2aff2a;fill-opacity:1;stroke:none;stroke-width:0.264999;stroke-linecap:round;stroke-linejoin:round;stroke-miterlimit:4;stroke-dasharray:none;stroke-opacity:1"
           d="m 616.49242,660.8134 c -1.99667,1.8e-4 -3.66224,1.52601 -3.83697,3.51502 -0.41744,-0.14997 -0.85765,-0.22673 -1.30121,-0.22686 -2.12735,8e-5 -3.85188,1.72461 -3.85196,3.85196 v 0 h -5.3e-4 c -2.12735,8e-5 -3.85188,1.72461 -3.85196,3.85197 1.2e-4,0.60399 0.14227,1.19946 0.41496,1.73839 -1.56809,0.52715 -2.6245,1.99665 -2.62465,3.65096 10e-5,1.50479 0.87643,2.87176 2.24379,3.50004 -1.36736,0.62828 -2.24369,1.99525 -2.24379,3.50004 10e-5,1.50479 0.87643,2.87176 2.24379,3.50004 -1.36736,0.62828 -2.24369,1.99525 -2.24379,3.50004 -4e-5,0.82828 0.26689,1.63449 0.7612,2.2991 h 134.97729 c -0.31141,-0.30004 -0.67111,-0.54549 -1.06402,-0.72607 1.36756,-0.62812 2.24412,-1.99512 2.24431,-3.50004 -8e-5,-2.12754 -1.72493,-3.85218 -3.85248,-3.85197 v 0 c -8e-5,-2.12754 -1.72493,-3.85217 -3.85248,-3.85196 -0.44339,1.9e-4 -0.88342,0.0769 -1.3007,0.22686 -7.9e-4,-0.008 -0.002,-0.0169 -0.003,-0.0254 -0.002,-0.0204 -0.004,-0.0407 -0.006,-0.061 -0.003,-0.0225 -0.005,-0.0448 -0.008,-0.0672 -7.9e-4,-0.006 -10e-4,-0.0114 -0.002,-0.0169 -0.002,-0.0175 -0.005,-0.0352 -0.007,-0.0527 -0.002,-0.0106 -0.003,-0.0212 -0.005,-0.0315 -0.003,-0.0196 -0.006,-0.0393 -0.01,-0.0589 -10e-4,-0.008 -0.003,-0.0167 -0.004,-0.0249 -0.004,-0.0241 -0.009,-0.048 -0.0139,-0.0718 -8e-4,-0.004 -10e-4,-0.008 -0.002,-0.0114 -0.004,-0.019 -0.008,-0.0383 -0.0124,-0.0574 -0.002,-0.009 -0.003,-0.0172 -0.005,-0.0259 -0.005,-0.0201 -0.009,-0.04 -0.0145,-0.0599 -0.002,-0.008 -0.003,-0.0151 -0.005,-0.0228 -0.004,-0.0172 -0.009,-0.0342 -0.0134,-0.0512 -0.003,-0.0103 -0.005,-0.0206 -0.008,-0.031 -0.0148,-0.0546 -0.0308,-0.1089 -0.0481,-0.1628 -0.008,-0.027 -0.0173,-0.0538 -0.0264,-0.0806 -0.0185,-0.0535 -0.0381,-0.10655 -0.0589,-0.15915 -0.0102,-0.0262 -0.0207,-0.0525 -0.0315,-0.0786 -0.0111,-0.0262 -0.0224,-0.0521 -0.0341,-0.078 -0.0114,-0.0259 -0.0232,-0.0518 -0.0351,-0.0775 v 0 c -0.025,-0.0524 -0.0512,-0.1043 -0.0786,-0.15555 -0.0117,-0.0222 -0.0236,-0.0442 -0.0357,-0.0661 l -0.003,-0.006 c -0.009,-0.0167 -0.0185,-0.0335 -0.0279,-0.0501 -0.004,-0.007 -0.009,-0.0148 -0.0129,-0.0222 -0.0239,-0.0406 -0.0485,-0.0807 -0.0739,-0.12038 -0.005,-0.008 -0.01,-0.0161 -0.015,-0.0243 -0.01,-0.0151 -0.0199,-0.0301 -0.03,-0.045 -0.006,-0.009 -0.0113,-0.0172 -0.0171,-0.0259 -0.0317,-0.0469 -0.0644,-0.0931 -0.0982,-0.13849 -0.003,-0.003 -0.005,-0.007 -0.008,-0.0103 -0.009,-0.0122 -0.0182,-0.0241 -0.0274,-0.0362 -0.007,-0.009 -0.013,-0.0177 -0.0196,-0.0265 -0.0162,-0.0206 -0.0325,-0.0408 -0.0491,-0.061 -0.0406,-0.0499 -0.0825,-0.0989 -0.12558,-0.14676 -0.0136,-0.0154 -0.0274,-0.0304 -0.0413,-0.0455 -0.004,-0.004 -0.007,-0.008 -0.0109,-0.0119 -0.0351,-0.0372 -0.0709,-0.0737 -0.10748,-0.10954 -0.006,-0.006 -0.0114,-0.0111 -0.017,-0.0167 -0.0348,-0.0339 -0.0703,-0.0672 -0.10646,-0.0997 l -0.003,-0.003 c -0.005,-0.005 -0.01,-0.009 -0.0145,-0.0135 -0.0179,-0.0161 -0.036,-0.0319 -0.0543,-0.0475 -0.003,-0.003 -0.007,-0.006 -0.01,-0.008 -0.0166,-0.014 -0.0333,-0.028 -0.0501,-0.0418 -0.0152,-0.0124 -0.0306,-0.0246 -0.046,-0.0367 -0.009,-0.008 -0.0189,-0.0151 -0.0284,-0.0227 -0.0631,-0.0494 -0.12773,-0.0968 -0.19379,-0.14211 -0.0255,-0.0175 -0.0511,-0.0344 -0.077,-0.0512 -0.005,-0.003 -0.0103,-0.007 -0.0155,-0.0103 -0.0211,-0.0135 -0.0422,-0.0267 -0.0636,-0.0398 -0.01,-0.006 -0.0196,-0.0122 -0.0295,-0.018 -0.0122,-0.007 -0.0244,-0.0148 -0.0367,-0.0222 -0.0197,-0.0116 -0.0395,-0.023 -0.0594,-0.0341 -0.003,-0.003 -0.006,-0.003 -0.009,-0.005 -0.0238,-0.0132 -0.0478,-0.0265 -0.0718,-0.0393 -0.007,-0.004 -0.0138,-0.008 -0.0207,-0.0114 -0.0432,-0.0227 -0.0868,-0.0446 -0.13074,-0.0656 -0.007,-0.003 -0.0138,-0.007 -0.0207,-0.01 h -5.3e-4 c -0.0186,-0.009 -0.0371,-0.0175 -0.0558,-0.0259 -0.0266,-0.0119 -0.0533,-0.0238 -0.0801,-0.0351 -0.0218,-0.009 -0.0437,-0.0185 -0.0656,-0.0274 -0.037,-0.0148 -0.0742,-0.0292 -0.11162,-0.0429 -0.01,-0.003 -0.0193,-0.007 -0.0289,-0.0103 -0.0131,-0.005 -0.0262,-0.009 -0.0393,-0.014 -0.0143,-0.005 -0.0286,-0.01 -0.0429,-0.0145 -0.0117,-0.004 -0.0234,-0.008 -0.0351,-0.0119 -0.0203,-0.007 -0.0406,-0.013 -0.061,-0.019 -0.0384,-0.0116 -0.077,-0.0227 -0.11576,-0.0331 -0.006,-0.003 -0.0128,-0.003 -0.0191,-0.005 -0.0174,-0.005 -0.0348,-0.01 -0.0522,-0.014 -0.0187,-0.004 -0.0375,-0.009 -0.0563,-0.013 -0.007,-0.003 -0.0141,-0.003 -0.0212,-0.005 -0.0254,-0.006 -0.0509,-0.0114 -0.0765,-0.0164 -0.0277,-0.006 -0.0554,-0.0114 -0.0832,-0.0164 -0.0186,-0.003 -0.0372,-0.007 -0.0558,-0.01 -0.0124,-0.003 -0.0248,-0.004 -0.0372,-0.006 -0.0248,-0.004 -0.0496,-0.007 -0.0744,-0.0109 -0.0349,-0.005 -0.0699,-0.009 -0.10491,-0.013 h -0.003 -0.003 c -0.0382,-0.004 -0.0764,-0.008 -0.11472,-0.0114 -0.0138,0 -0.0276,-0.003 -0.0413,-0.003 -0.0107,0 -0.0214,0 -0.032,-0.003 -0.0198,-0.003 -0.0396,-0.003 -0.0594,-0.004 h -0.004 -0.007 c -0.0262,0 -0.0523,-0.003 -0.0785,-0.003 -0.004,0 -0.009,0 -0.0134,0 -0.0238,0 -0.0475,0 -0.0713,0 -0.0551,1.8e-4 -0.11027,0.003 -0.16536,0.004 h -0.004 c -0.008,0 -0.0159,0 -0.0238,0 -0.0231,0 -0.0462,0.003 -0.0693,0.004 -0.005,0 -0.0103,0 -0.0155,0 -0.0203,0.003 -0.0407,0.003 -0.061,0.005 -0.0395,0.004 -0.079,0.008 -0.11834,0.013 -0.048,0.006 -0.0959,0.0122 -0.14366,0.0196 -0.0186,0.003 -0.0372,0.006 -0.0558,0.009 -0.008,0.003 -0.0165,0.003 -0.0248,0.004 -0.02,0.004 -0.04,0.007 -0.06,0.0114 -0.009,0.003 -0.0182,0.004 -0.0274,0.006 -0.0167,0.003 -0.0334,0.007 -0.0501,0.0108 -0.0104,0.003 -0.0207,0.004 -0.031,0.007 -0.014,0.003 -0.0279,0.006 -0.0418,0.01 -0.0142,0.003 -0.0283,0.006 -0.0424,0.01 -0.0214,0.006 -0.0428,0.0111 -0.0641,0.0169 -0.005,0 -0.01,0.003 -0.015,0.004 -0.0122,0.003 -0.0245,0.007 -0.0367,0.0103 -0.0166,0.005 -0.0331,0.01 -0.0496,0.0146 -0.0161,0.005 -0.0321,0.01 -0.0481,0.0145 -0.01,0.003 -0.019,0.006 -0.0284,0.009 -0.0187,0.006 -0.0373,0.0122 -0.0558,0.0185 -0.006,0.003 -0.0121,0.004 -0.0181,0.006 -0.0143,0.005 -0.0286,0.01 -0.0429,0.0151 -0.0176,0.006 -0.0352,0.0127 -0.0527,0.019 -0.006,0.003 -0.0121,0.004 -0.0181,0.007 -0.0216,0.008 -0.0431,0.0167 -0.0646,0.0254 -0.004,0.003 -0.009,0.003 -0.0134,0.005 -0.022,0.009 -0.0438,0.018 -0.0656,0.0274 l -0.007,0.003 c -0.0434,0.0185 -0.0865,0.0378 -0.12919,0.0579 -0.0234,0.0108 -0.0466,0.0222 -0.0698,0.0336 -0.004,0.003 -0.009,0.005 -0.0134,0.007 -0.008,0.004 -0.0162,0.008 -0.0243,0.0119 -0.0451,0.023 -0.0897,0.047 -0.13384,0.0718 -0.008,0.004 -0.0159,0.009 -0.0238,0.0135 -0.0163,0.009 -0.0325,0.0188 -0.0486,0.0284 -0.008,0.005 -0.0159,0.009 -0.0238,0.014 -0.0147,0.009 -0.0293,0.0175 -0.0439,0.0265 -0.014,0.009 -0.028,0.0177 -0.0419,0.0268 -0.007,0.005 -0.0145,0.009 -0.0217,0.0135 -0.007,0.004 -0.0131,0.009 -0.0196,0.013 -0.0171,0.0114 -0.0342,0.0225 -0.0512,0.0341 -0.0227,0.0153 -0.0453,0.0311 -0.0677,0.047 l -0.003,0.003 c -0.0191,0.0138 -0.038,0.0277 -0.0568,0.0419 -0.007,0.005 -0.0145,0.0103 -0.0217,0.0156 -0.007,0.006 -0.0145,0.0114 -0.0217,0.0169 -0.0144,0.0109 -0.0287,0.0217 -0.0429,0.0326 -0.0189,0.0148 -0.0377,0.0298 -0.0563,0.045 l -0.003,0.003 c -0.0123,0.0101 -0.0245,0.0204 -0.0367,0.0305 -0.057,0.0475 -0.1127,0.0966 -0.16691,0.14729 -0.009,0.008 -0.0172,0.0164 -0.0258,0.0249 -0.0101,0.01 -0.02,0.0188 -0.03,0.0284 -0.0109,0.0109 -0.0218,0.0217 -0.0326,0.0326 -0.0121,0.0122 -0.0242,0.0243 -0.0362,0.0367 -0.002,0.003 -0.004,0.004 -0.007,0.007 -0.0151,0.0156 -0.0301,0.0312 -0.045,0.047 -0.0102,0.0109 -0.0204,0.022 -0.0305,0.0331 -0.007,0.007 -0.0131,0.0145 -0.0196,0.0217 -0.005,0.006 -0.0103,0.0116 -0.0155,0.0175 -0.0333,0.0374 -0.0658,0.0755 -0.0977,0.11422 -0.0123,0.0153 -0.0246,0.0306 -0.0367,0.046 -0.009,0.0114 -0.0183,0.023 -0.0274,0.0346 l -0.003,0.003 c -0.0148,0.0188 -0.0295,0.0378 -0.0439,0.0568 -0.007,0.01 -0.0145,0.0198 -0.0217,0.03 -0.0103,0.014 -0.0204,0.0282 -0.0305,0.0424 -0.0272,0.0379 -0.0538,0.0764 -0.0796,0.11525 -0.003,0.005 -0.006,0.01 -0.009,0.0146 -0.0415,0.0637 -0.0812,0.12872 -0.11886,0.19481 -0.007,0.0124 -0.0142,0.0251 -0.0212,0.0377 l -0.003,0.006 c -0.0121,0.022 -0.024,0.044 -0.0357,0.0661 -0.002,0.004 -0.005,0.009 -0.007,0.013 -0.0214,0.0409 -0.0421,0.0823 -0.062,0.12401 -0.009,0.0177 -0.017,0.0358 -0.0253,0.0538 -0.008,-0.0188 -0.0171,-0.0373 -0.0258,-0.0558 -0.2828,-0.59004 -0.71123,-1.09831 -1.24488,-1.4769 -0.0462,-0.0327 -0.093,-0.0644 -0.14056,-0.0951 -0.0951,-0.0615 -0.19287,-0.1187 -0.29301,-0.17156 -0.0501,-0.0262 -0.10074,-0.0514 -0.15193,-0.0755 -0.25624,-0.12083 -0.52504,-0.21301 -0.8015,-0.2749 -0.0552,-0.0124 -0.11069,-0.0236 -0.1664,-0.0336 -0.2231,-0.0398 -0.44929,-0.0599 -0.67593,-0.0599 -1.4907,1.6e-4 -2.8475,0.8604 -3.4835,2.20864 -0.005,0.0116 -0.0107,0.0233 -0.016,0.0351 -0.62828,-1.36736 -1.99525,-2.24366 -3.50004,-2.24377 -1.50479,1.1e-4 -2.87176,0.87641 -3.50005,2.24377 -0.62828,-1.36736 -1.99525,-2.24366 -3.50004,-2.24377 -1.50468,0 -2.87162,0.87611 -3.50004,2.24327 -0.62843,-1.36716 -1.99538,-2.24327 -3.50005,-2.24327 -1.50479,1.1e-4 -2.87176,0.87641 -3.50004,2.24377 -0.37437,-0.81425 -1.02091,-1.47248 -1.82832,-1.86137 -0.21607,-1.75413 -1.59811,-3.13618 -3.35225,-3.35227 1.86107,-0.16356 3.33647,-1.63899 3.50005,-3.50004 -8e-5,-2.12736 -1.72462,-3.85188 -3.85196,-3.85196 h -10e-4 5.3e-4 c -8e-5,-2.12736 -1.72462,-3.85189 -3.85197,-3.85197 -0.56691,0.33277 -1.03923,0.80511 -1.37201,1.372 0.057,-0.26545 0.0857,-0.5362 0.0858,-0.80769 2e-4,-2.12754 -1.72442,-3.85239 -3.85196,-3.85247 -1.50479,1.1e-4 -2.87177,0.87641 -3.50005,2.24378 -0.62828,-1.36737 -1.99525,-2.24367 -3.50004,-2.24378 -1.50479,1.1e-4 -2.87177,0.87641 -3.50005,2.24378 -0.62828,-1.36737 -1.99525,-2.24367 -3.50004,-2.24378 -1.50479,1.1e-4 -2.87176,0.87641 -3.50005,2.24378 -0.62828,-1.36737 -1.99525,-2.24367 -3.50004,-2.24378 -1.50461,0 -2.87133,0.87659 -3.49953,2.24378 -0.62828,-1.36737 -1.99525,-2.24367 -3.50004,-2.24378 -1.50479,1.1e-4 -2.87177,0.87641 -3.50005,2.24378 -0.62828,-1.36737 -1.99525,-2.24367 -3.50004,-2.24378 -1.50468,0 -2.87162,0.87612 -3.50005,2.24327 -0.62843,-1.36715 -1.99537,-2.24327 -3.50004,-2.24327 -1.50479,1.1e-4 -2.87176,0.87641 -3.50005,2.24378 -0.62828,-1.36737 -1.99525,-2.24367 -3.50004,-2.24378 -1.50479,1.1e-4 -2.87176,0.87641 -3.50005,2.24378 -0.62828,-1.36737 -1.99525,-2.24367 -3.50004,-2.24378 -1.50479,1.1e-4 -2.87176,0.87641 -3.50005,2.24378 -0.62828,-1.36737 -1.99525,-2.24367 -3.50004,-2.24378 z"
           sodipodi:nodetypes="cccscsccccccscccccscccsscscscscccccccccccccccsssscccccccccsscsccccsccccsscsscscccsccsscscsccsssccccsscscccsccccccccccsssccsscssssccccssscsssscscccscccssssccccsccccccsscsccsscssscccsscccscsssccsccscccsccscccscsccccccccccccccccccccscscccccc" />
        <g
           id="g11512">
          <path
             id="path7997"
             style="opacity:0.997;fill:#aaffaa;fill-opacity:1;stroke:none;stroke-width:0.264999;stroke-linecap:round;stroke-linejoin:round;stroke-miterlimit:4;stroke-dasharray:none;stroke-opacity:1"
             d="m 616.49265,660.81327 c -1.99668,1.8e-4 -3.66223,1.52601 -3.83697,3.51501 -0.41746,-0.14996 -0.85767,-0.22672 -1.30122,-0.22685 -2.12735,8e-5 -3.85188,1.72461 -3.85196,3.85196 v 0 c -2.12733,8e-5 -3.85186,1.72461 -3.85194,3.85196 3e-5,0.17778 0.0159,0.3541 0.0403,0.52917 0.25858,-1.87624 1.86433,-3.32272 3.81164,-3.3228 v 0 c 8e-5,-2.12735 1.72461,-3.85188 3.85196,-3.85196 0.44355,1.3e-4 0.88376,0.0769 1.30122,0.22686 0.17474,-1.98901 1.84029,-3.51484 3.83697,-3.51502 l -0.003,0.003 c 1.50476,1.4e-4 2.87176,0.87644 3.50004,2.2438 0.62828,-1.36736 1.99525,-2.24366 3.50004,-2.2438 1.50479,1.4e-4 2.87176,0.87644 3.50004,2.2438 0.62828,-1.36736 1.99525,-2.24366 3.50004,-2.2438 1.50479,1.4e-4 2.87176,0.87644 3.50004,2.2438 0.62831,-1.36736 1.99528,-2.24366 3.50004,-2.2438 1.50469,0 2.87163,0.87615 3.50007,2.2433 0.62841,-1.36715 1.99536,-2.2433 3.50004,-2.2433 1.50479,1.4e-4 2.87176,0.87644 3.50004,2.2438 0.62828,-1.36736 1.99525,-2.24366 3.50004,-2.2438 1.50479,1.4e-4 2.87176,0.87644 3.50004,2.2438 0.6282,-1.36718 1.99493,-2.2438 3.49954,-2.2438 1.50479,1.4e-4 2.87176,0.87644 3.50004,2.2438 0.62828,-1.36736 1.99525,-2.24366 3.50004,-2.2438 1.50479,1.4e-4 2.87176,0.87644 3.50004,2.2438 0.62828,-1.36736 1.99528,-2.24366 3.50004,-2.2438 1.50479,1.4e-4 2.87179,0.87644 3.50007,2.2438 0.62828,-1.36736 1.99525,-2.24366 3.50004,-2.2438 1.94678,8e-5 3.55185,1.44582 3.81114,3.32127 0.0241,-0.17473 0.0407,-0.3505 0.0408,-0.52711 1.9e-4,-2.12754 -1.72442,-3.85241 -3.85196,-3.85249 -1.50479,1.3e-4 -2.87176,0.87643 -3.50004,2.2438 -0.62828,-1.36737 -1.99528,-2.24367 -3.50007,-2.2438 -1.50476,1.3e-4 -2.87176,0.87643 -3.50004,2.2438 -0.62828,-1.36737 -1.99525,-2.24367 -3.50004,-2.2438 -1.50479,1.3e-4 -2.87176,0.87643 -3.50004,2.2438 -0.62828,-1.36737 -1.99525,-2.24367 -3.50004,-2.2438 -1.50461,0 -2.87134,0.87662 -3.49954,2.2438 -0.62828,-1.36737 -1.99525,-2.24367 -3.50004,-2.2438 -1.50479,1.3e-4 -2.87176,0.87643 -3.50004,2.2438 -0.62828,-1.36737 -1.99525,-2.24367 -3.50004,-2.2438 -1.50468,0 -2.87163,0.87614 -3.50004,2.2433 -0.62844,-1.36716 -1.99538,-2.2433 -3.50007,-2.2433 -1.50476,1.3e-4 -2.87173,0.87643 -3.50004,2.2438 -0.62828,-1.36737 -1.99525,-2.24367 -3.50004,-2.2438 -1.50479,1.3e-4 -2.87176,0.87643 -3.50004,2.2438 -0.62828,-1.36737 -1.99525,-2.24367 -3.50004,-2.2438 -1.50479,1.3e-4 -2.87176,0.87643 -3.50004,2.2438 -0.62828,-1.36737 -1.99528,-2.24367 -3.50004,-2.2438 z m 68.13692,3.29075 c -0.53041,0.31134 -0.97631,0.74621 -1.30431,1.26503 0.0108,0.11792 0.018,0.23685 0.018,0.35761 -1.1e-4,0.27149 -0.0288,0.54223 -0.0858,0.80769 0.33277,-0.5669 0.8051,-1.03923 1.372,-1.372 2.12735,8e-5 3.85188,1.72461 3.85196,3.85197 v 0 c 1.90415,5e-5 3.4811,1.38324 3.79201,3.19876 0.0262,-0.13298 0.0478,-0.26755 0.0599,-0.40513 -8e-5,-2.12739 -1.72461,-3.85189 -3.85194,-3.85197 v 0 c -8e-5,-2.12735 -1.72461,-3.85188 -3.85196,-3.85196 z m -80.88963,9.56736 c -1.38705,0.61037 -2.29947,1.98623 -2.2996,3.5233 0,0.18036 0.0132,0.35848 0.0377,0.53382 0.19688,-1.43362 1.18708,-2.65583 2.58691,-3.12642 -0.14954,-0.29554 -0.2559,-0.60905 -0.32504,-0.9307 z m 86.6712,2.19988 c -0.47175,0.27054 -1.006,0.44487 -1.57718,0.49506 1.75414,0.21609 3.13619,1.59811 3.35227,3.35224 0.8074,0.38889 1.45394,1.04715 1.8283,1.8614 0.62828,-1.36737 1.99525,-2.24369 3.50004,-2.2438 1.50469,0 2.87163,0.87612 3.50004,2.24327 0.62844,-1.36715 1.99538,-2.24327 3.50007,-2.24327 1.50476,1.1e-4 2.87176,0.87643 3.50004,2.2438 0.62828,-1.36737 1.99525,-2.24369 3.50004,-2.2438 1.50479,1.1e-4 2.87176,0.87643 3.50004,2.2438 0.005,-0.0119 0.0111,-0.0236 0.0161,-0.0352 0.636,-1.34824 1.99281,-2.20848 3.48353,-2.20864 0.22664,0 0.45281,0.0201 0.6759,0.0599 0.0557,0.0101 0.11121,0.0212 0.16643,0.0336 0.27643,0.0619 0.54525,0.1541 0.8015,0.27493 0.0512,0.0241 0.10181,0.0492 0.15192,0.0754 0.10015,0.0529 0.19791,0.11007 0.293,0.17159 0.0476,0.0307 0.0944,0.0624 0.14055,0.0951 0.53366,0.37859 0.9621,0.88688 1.24489,1.47693 0.009,0.0185 0.0177,0.037 0.0259,0.0558 0.008,-0.018 0.0164,-0.036 0.0254,-0.0537 0.0198,-0.0417 0.0406,-0.0831 0.062,-0.12404 0.003,-0.004 0.005,-0.009 0.007,-0.013 0.0116,-0.0222 0.0236,-0.0441 0.0357,-0.0661 l 0.003,-0.006 c 0.007,-0.0127 0.0143,-0.0254 0.0212,-0.0377 0.0376,-0.0661 0.0774,-0.1311 0.11885,-0.19481 0.003,-0.004 0.006,-0.01 0.009,-0.0151 0.0257,-0.0389 0.0524,-0.0773 0.0796,-0.11525 0.01,-0.0143 0.0201,-0.0284 0.0305,-0.0424 0.007,-0.0103 0.0148,-0.0198 0.0217,-0.03 0.0143,-0.019 0.0291,-0.038 0.0439,-0.0569 l 0.003,-0.003 c 0.009,-0.0116 0.0183,-0.0233 0.0274,-0.0346 0.0122,-0.0154 0.0244,-0.0307 0.0367,-0.046 0.0319,-0.0387 0.0644,-0.0768 0.0977,-0.11422 0.005,-0.006 0.0106,-0.0117 0.0156,-0.0175 0.007,-0.007 0.0127,-0.0145 0.0196,-0.0217 0.01,-0.0111 0.0204,-0.0222 0.0305,-0.0331 0.0148,-0.0159 0.0298,-0.0314 0.0449,-0.047 0.003,-0.003 0.005,-0.004 0.007,-0.007 0.0119,-0.0124 0.0241,-0.0243 0.0362,-0.0367 0.0109,-0.0109 0.0217,-0.0217 0.0326,-0.0326 0.01,-0.01 0.0198,-0.0185 0.03,-0.0284 0.009,-0.008 0.0169,-0.0169 0.0259,-0.0249 0.0542,-0.0507 0.10991,-0.0998 0.1669,-0.14727 0.0122,-0.0101 0.0243,-0.0204 0.0367,-0.0305 l 0.003,-0.003 c 0.0185,-0.0151 0.0374,-0.0301 0.0563,-0.0449 0.0143,-0.0109 0.0285,-0.0217 0.0429,-0.0325 0.007,-0.006 0.0148,-0.0111 0.0217,-0.0169 0.007,-0.005 0.0148,-0.0106 0.0217,-0.0156 0.0188,-0.0143 0.0377,-0.028 0.0568,-0.0418 l 0.003,-0.003 c 0.0225,-0.0159 0.0455,-0.0317 0.0682,-0.047 0.0169,-0.0116 0.034,-0.0227 0.0512,-0.0341 0.006,-0.004 0.0127,-0.009 0.0196,-0.013 0.007,-0.004 0.0143,-0.008 0.0212,-0.0135 0.014,-0.009 0.0284,-0.018 0.0424,-0.0269 0.0145,-0.009 0.0292,-0.0175 0.0439,-0.0265 0.008,-0.005 0.0159,-0.009 0.0238,-0.014 0.0161,-0.01 0.0322,-0.0193 0.0486,-0.0284 0.008,-0.005 0.0159,-0.01 0.0238,-0.0135 0.0441,-0.0249 0.0887,-0.0488 0.13385,-0.0718 0.008,-0.004 0.0161,-0.008 0.0244,-0.0119 0.004,-0.003 0.01,-0.004 0.0135,-0.007 0.0233,-0.0114 0.0464,-0.0227 0.0698,-0.0336 0.0427,-0.0201 0.0858,-0.0394 0.1292,-0.0579 l 0.007,-0.003 c 0.0217,-0.009 0.0436,-0.0185 0.0656,-0.0274 0.004,-0.003 0.01,-0.003 0.0135,-0.005 0.0214,-0.009 0.043,-0.0177 0.0646,-0.0259 0.006,-0.003 0.0122,-0.004 0.018,-0.007 0.0175,-0.006 0.0351,-0.0132 0.0527,-0.019 0.0143,-0.005 0.0286,-0.0101 0.0429,-0.0151 0.006,-0.003 0.0122,-0.003 0.018,-0.006 0.0185,-0.006 0.0371,-0.0127 0.0558,-0.0185 0.01,-0.003 0.0185,-0.006 0.0285,-0.009 0.0159,-0.004 0.0319,-0.01 0.048,-0.0145 0.0164,-0.005 0.033,-0.01 0.0496,-0.0145 0.0122,-0.003 0.0246,-0.007 0.0367,-0.0103 0.005,0 0.0101,-0.004 0.0151,-0.004 0.0214,-0.006 0.0427,-0.0111 0.0641,-0.0169 0.014,-0.004 0.0282,-0.007 0.0424,-0.01 0.014,-0.004 0.0278,-0.007 0.0419,-0.01 0.0103,-0.003 0.0206,-0.004 0.031,-0.007 0.0167,-0.004 0.0334,-0.008 0.0501,-0.0109 0.009,-0.003 0.0185,-0.003 0.0274,-0.006 0.0201,-0.005 0.04,-0.007 0.06,-0.0114 0.008,0 0.0167,0 0.0249,-0.004 l 0.0558,-0.009 c 0.0477,-0.007 0.0956,-0.0138 0.14364,-0.0196 0.0393,-0.005 0.0788,-0.009 0.11835,-0.013 0.0204,-0.003 0.0407,-0.003 0.061,-0.005 h 0.0156 c 0.023,0 0.0462,-0.004 0.0692,-0.004 h 0.0238 0.004 c 0.0551,0 0.11028,-0.004 0.16537,-0.004 h 0.0713 0.0135 c 0.0262,0 0.0523,0.003 0.0785,0.003 h 0.007 0.004 c 0.0198,0 0.0396,0 0.0594,0.004 0.0106,0.003 0.0214,0.003 0.032,0.003 0.0138,0 0.0275,0.003 0.0413,0.003 0.0383,0.003 0.0765,0.007 0.11472,0.0114 h 0.003 0.003 c 0.035,0.004 0.07,0.008 0.10491,0.0135 0.0249,0.004 0.0496,0.007 0.0744,0.0109 0.0124,0.003 0.0249,0.003 0.0372,0.006 0.0185,0.003 0.0372,0.007 0.0558,0.0103 0.0278,0.005 0.0555,0.01 0.0832,0.0161 0.0257,0.005 0.0511,0.0106 0.0765,0.0164 0.007,0.003 0.0143,0.003 0.0212,0.005 0.0188,0.004 0.0376,0.009 0.0563,0.013 0.0175,0.004 0.0348,0.009 0.0522,0.014 0.006,0.003 0.0132,0.003 0.019,0.005 0.0388,0.0103 0.0774,0.0214 0.11575,0.0331 0.0204,0.006 0.0407,0.0116 0.061,0.0185 0.0116,0.004 0.0235,0.008 0.0351,0.0119 0.0143,0.004 0.0286,0.01 0.0429,0.0151 0.013,0.005 0.0262,0.009 0.0393,0.014 0.01,0.003 0.019,0.007 0.029,0.0103 0.0374,0.0138 0.0746,0.0281 0.1116,0.0429 0.022,0.009 0.0438,0.0185 0.0656,0.0274 0.0268,0.0114 0.0535,0.0233 0.0801,0.0351 0.0188,0.008 0.0367,0.0169 0.0553,0.0259 v 0 c 0.007,0.003 0.0138,0.007 0.0206,0.01 0.0439,0.0209 0.0875,0.0429 0.13075,0.0656 0.007,0.003 0.0138,0.007 0.0206,0.0114 0.0241,0.0127 0.048,0.0262 0.0718,0.0393 0.003,0.003 0.006,0.003 0.009,0.005 0.0198,0.0111 0.0397,0.0225 0.0594,0.0341 0.0122,0.007 0.0243,0.0151 0.0367,0.0222 0.01,0.006 0.0193,0.0122 0.0294,0.018 0.0214,0.013 0.0425,0.0262 0.0635,0.0398 0.005,0.003 0.0106,0.007 0.0156,0.01 0.0259,0.0167 0.0515,0.0342 0.077,0.0517 0.0661,0.0453 0.1307,0.0927 0.19378,0.1421 0.01,0.008 0.0196,0.0143 0.0284,0.0222 0.0154,0.0122 0.0308,0.0243 0.046,0.0367 0.0167,0.0137 0.0335,0.0279 0.0501,0.0418 0.003,0.003 0.007,0.005 0.01,0.008 0.0183,0.0156 0.0364,0.0315 0.0542,0.0475 0.005,0.005 0.0101,0.008 0.0151,0.0135 l 0.003,0.003 c 0.0362,0.0325 0.0717,0.0658 0.10647,0.0998 0.006,0.006 0.0111,0.0106 0.0169,0.0164 0.0366,0.0358 0.0724,0.0723 0.1075,0.10954 0.004,0.004 0.007,0.008 0.0109,0.0119 0.014,0.0151 0.0277,0.03 0.0413,0.0454 0.0431,0.0479 0.085,0.0969 0.12557,0.14677 0.0167,0.0201 0.0329,0.0404 0.0491,0.061 0.007,0.009 0.0127,0.0175 0.0196,0.0265 0.009,0.0122 0.0185,0.0241 0.0274,0.0362 0.003,0.003 0.005,0.007 0.008,0.0103 0.0338,0.0454 0.0665,0.0916 0.0982,0.13848 0.006,0.009 0.0111,0.0169 0.0169,0.0259 0.01,0.0148 0.0198,0.0304 0.03,0.0455 0.005,0.008 0.0101,0.0164 0.0151,0.0243 0.0254,0.0397 0.05,0.0793 0.0739,0.11991 0.004,0.007 0.009,0.0153 0.013,0.0222 0.009,0.0167 0.0188,0.0334 0.0279,0.0501 l 0.003,0.006 c 0.0122,0.022 0.0241,0.0439 0.0356,0.0661 0.0274,0.0512 0.0535,0.10317 0.0786,0.15555 0.0119,0.0257 0.0238,0.0516 0.0351,0.0775 0.0116,0.0259 0.023,0.0518 0.0341,0.078 0.0109,0.0262 0.0214,0.0524 0.0315,0.0786 0.0209,0.0526 0.0404,0.10567 0.0589,0.15917 0.009,0.0268 0.0182,0.0536 0.0265,0.0806 0.0172,0.0539 0.0333,0.10819 0.0481,0.1628 0.003,0.0103 0.005,0.0206 0.008,0.031 0.005,0.0169 0.01,0.034 0.0135,0.0511 0.003,0.008 0.003,0.0148 0.005,0.0228 0.006,0.0198 0.01,0.0398 0.0146,0.0599 0.003,0.009 0.003,0.0169 0.005,0.0259 0.005,0.019 0.008,0.0384 0.0124,0.0574 0,0.003 0,0.007 0.003,0.0114 0.005,0.0238 0.01,0.0477 0.0135,0.0718 0,0.008 0.003,0.0167 0.004,0.0249 0.004,0.0196 0.007,0.0393 0.0103,0.0589 0.003,0.0103 0.003,0.0209 0.005,0.0315 0.003,0.0175 0.005,0.0352 0.007,0.0527 0,0.006 0,0.0111 0.003,0.0169 0.003,0.0225 0.005,0.0447 0.008,0.0672 0.003,0.0204 0.004,0.0406 0.006,0.061 0,0.008 0.003,0.0175 0.003,0.0254 0.41727,-0.14994 0.8573,-0.22667 1.30069,-0.22685 2.12754,-2.2e-4 3.85238,1.72442 3.85246,3.85196 1.95162,-1.9e-4 3.55976,1.45248 3.8132,3.33467 0.0251,-0.17753 0.0393,-0.35837 0.0393,-0.54104 -7e-5,-2.12754 -1.72492,-3.85218 -3.85249,-3.85197 -8e-5,-2.12754 -1.72492,-3.85217 -3.85246,-3.85196 -0.44339,1.9e-4 -0.88342,0.0769 -1.30069,0.22686 0,-0.008 -0.003,-0.0167 -0.003,-0.0254 -0.003,-0.0204 -0.004,-0.0407 -0.006,-0.061 -0.003,-0.0225 -0.005,-0.0448 -0.008,-0.0672 0,-0.006 0,-0.0116 -0.003,-0.0169 -0.003,-0.0175 -0.005,-0.0352 -0.007,-0.0527 -0.003,-0.0106 -0.003,-0.0212 -0.005,-0.0315 -0.003,-0.0196 -0.006,-0.0393 -0.0103,-0.0589 0,-0.008 -0.003,-0.0167 -0.004,-0.0249 -0.004,-0.0241 -0.008,-0.048 -0.0135,-0.0718 0,-0.004 0,-0.008 -0.003,-0.0114 -0.004,-0.019 -0.008,-0.0383 -0.0124,-0.0574 -0.003,-0.009 -0.003,-0.0172 -0.005,-0.0259 -0.005,-0.0201 -0.009,-0.04 -0.0146,-0.0599 -0.003,-0.008 -0.003,-0.0151 -0.005,-0.0228 -0.004,-0.0172 -0.009,-0.0342 -0.0135,-0.0511 -0.003,-0.0103 -0.005,-0.0206 -0.008,-0.031 -0.0148,-0.0546 -0.0308,-0.10888 -0.0481,-0.1628 -0.008,-0.027 -0.0172,-0.0538 -0.0265,-0.0806 -0.0185,-0.0535 -0.0381,-0.10658 -0.0589,-0.15918 -0.0103,-0.0262 -0.0206,-0.0524 -0.0315,-0.0786 -0.0111,-0.0262 -0.0225,-0.0521 -0.0341,-0.078 -0.0114,-0.0259 -0.0233,-0.0518 -0.0351,-0.0775 -0.0251,-0.0524 -0.0511,-0.1043 -0.0786,-0.15555 -0.0117,-0.0222 -0.0236,-0.0442 -0.0356,-0.0661 l -0.003,-0.006 c -0.009,-0.0167 -0.0185,-0.0335 -0.0279,-0.0501 -0.004,-0.007 -0.009,-0.0148 -0.013,-0.0222 -0.0238,-0.0406 -0.0485,-0.0802 -0.0739,-0.11991 -0.005,-0.008 -0.0101,-0.0167 -0.0151,-0.0249 -0.01,-0.0151 -0.0198,-0.0301 -0.03,-0.045 -0.006,-0.009 -0.0114,-0.0172 -0.0169,-0.0259 -0.0317,-0.0469 -0.0644,-0.0931 -0.0982,-0.13848 -0.003,-0.003 -0.005,-0.007 -0.008,-0.0103 -0.009,-0.0122 -0.0183,-0.0241 -0.0274,-0.0362 -0.007,-0.009 -0.013,-0.0175 -0.0196,-0.0265 -0.0161,-0.0206 -0.0325,-0.0408 -0.0491,-0.061 -0.0406,-0.0499 -0.0825,-0.0989 -0.12557,-0.14677 -0.0135,-0.0153 -0.0275,-0.0304 -0.0413,-0.0454 -0.004,-0.004 -0.007,-0.008 -0.0109,-0.0119 -0.0351,-0.0372 -0.0709,-0.0737 -0.1075,-0.10954 -0.006,-0.006 -0.0114,-0.0109 -0.0169,-0.0164 -0.0348,-0.0339 -0.0703,-0.0672 -0.10647,-0.0998 l -0.003,-0.003 c -0.005,-0.005 -0.0106,-0.009 -0.0151,-0.0135 -0.018,-0.0161 -0.036,-0.0319 -0.0542,-0.0475 -0.003,-0.003 -0.007,-0.006 -0.01,-0.008 -0.0167,-0.014 -0.0333,-0.0281 -0.0501,-0.0418 -0.0151,-0.0124 -0.0306,-0.0246 -0.046,-0.0367 -0.009,-0.008 -0.019,-0.0146 -0.0284,-0.0222 -0.0631,-0.0494 -0.12772,-0.0968 -0.19378,-0.1421 -0.0254,-0.0175 -0.0511,-0.0349 -0.077,-0.0517 -0.005,-0.003 -0.0103,-0.007 -0.0156,-0.01 -0.0212,-0.0135 -0.0421,-0.0267 -0.0635,-0.0398 -0.0101,-0.006 -0.0196,-0.0122 -0.0294,-0.018 -0.0122,-0.007 -0.0243,-0.0148 -0.0367,-0.0222 -0.0198,-0.0116 -0.0395,-0.023 -0.0594,-0.0341 -0.003,-0.003 -0.006,-0.003 -0.009,-0.005 -0.0238,-0.0132 -0.0478,-0.0265 -0.0718,-0.0393 -0.007,-0.004 -0.0138,-0.008 -0.0206,-0.0114 -0.0432,-0.0227 -0.0868,-0.0446 -0.13075,-0.0656 -0.007,-0.003 -0.0138,-0.007 -0.0206,-0.01 v 0 c -0.0185,-0.009 -0.0366,-0.0175 -0.0553,-0.0259 -0.0266,-0.0119 -0.0533,-0.0238 -0.0801,-0.0351 -0.0217,-0.009 -0.0437,-0.0185 -0.0656,-0.0274 -0.037,-0.0148 -0.0742,-0.0292 -0.1116,-0.0429 -0.0101,-0.003 -0.0193,-0.007 -0.029,-0.0103 -0.0132,-0.005 -0.0262,-0.009 -0.0393,-0.014 -0.0143,-0.005 -0.0286,-0.0106 -0.0429,-0.0151 -0.0116,-0.004 -0.0235,-0.008 -0.0351,-0.0119 -0.0204,-0.007 -0.0406,-0.0127 -0.061,-0.0185 -0.0384,-0.0116 -0.077,-0.0228 -0.11575,-0.0331 -0.006,-0.003 -0.0127,-0.003 -0.019,-0.005 -0.0175,-0.005 -0.0348,-0.01 -0.0522,-0.014 -0.0188,-0.004 -0.0375,-0.009 -0.0563,-0.013 -0.007,-0.003 -0.014,-0.003 -0.0212,-0.005 -0.0254,-0.006 -0.0509,-0.0116 -0.0765,-0.0164 -0.0277,-0.006 -0.0554,-0.0111 -0.0832,-0.0161 -0.0185,-0.003 -0.0372,-0.007 -0.0558,-0.0103 -0.0124,-0.003 -0.0249,-0.004 -0.0372,-0.006 -0.0249,-0.004 -0.0496,-0.007 -0.0744,-0.0109 -0.0349,-0.005 -0.0699,-0.01 -0.10491,-0.0135 h -0.003 -0.003 c -0.0382,-0.004 -0.0764,-0.008 -0.11472,-0.0114 -0.0138,0 -0.0276,-0.003 -0.0413,-0.003 -0.0108,0 -0.0214,0 -0.032,-0.003 -0.0198,-0.003 -0.0396,-0.003 -0.0594,-0.004 h -0.004 -0.007 c -0.0262,0 -0.0523,-0.003 -0.0785,-0.003 h -0.0135 -0.0713 c -0.0551,1.9e-4 -0.11026,0.003 -0.16537,0.004 h -0.004 -0.0238 c -0.023,0 -0.0461,0.003 -0.0692,0.004 h -0.0156 c -0.0204,0.003 -0.0407,0.003 -0.061,0.005 -0.0395,0.004 -0.079,0.008 -0.11835,0.013 -0.048,0.006 -0.0959,0.0122 -0.14364,0.0196 l -0.0558,0.009 c -0.008,0.003 -0.0164,0.003 -0.0249,0.004 -0.0201,0.004 -0.0399,0.007 -0.06,0.0114 -0.009,0.003 -0.0182,0.004 -0.0274,0.006 -0.0167,0.003 -0.0334,0.007 -0.0501,0.0109 -0.0103,0.003 -0.0206,0.004 -0.031,0.007 -0.014,0.003 -0.028,0.006 -0.0419,0.01 -0.0143,0.003 -0.0283,0.006 -0.0424,0.01 -0.0214,0.006 -0.0428,0.0114 -0.0641,0.0169 -0.005,0 -0.0101,0.003 -0.0151,0.004 -0.0122,0.003 -0.0246,0.007 -0.0367,0.0103 -0.0167,0.005 -0.0331,0.01 -0.0496,0.0145 -0.0161,0.005 -0.0321,0.0101 -0.048,0.0145 -0.0101,0.003 -0.019,0.006 -0.0285,0.009 -0.0188,0.006 -0.0373,0.0122 -0.0558,0.0185 -0.006,0.003 -0.0122,0.004 -0.018,0.006 -0.0143,0.005 -0.0286,0.01 -0.0429,0.0151 -0.0177,0.006 -0.0352,0.0127 -0.0527,0.0191 -0.006,0.003 -0.0122,0.004 -0.018,0.007 -0.0217,0.008 -0.0431,0.0172 -0.0646,0.0259 -0.004,0.003 -0.009,0.003 -0.0135,0.005 -0.022,0.009 -0.0438,0.018 -0.0656,0.0274 l -0.007,0.003 c -0.0434,0.0185 -0.0865,0.0378 -0.1292,0.0579 -0.0233,0.0109 -0.0466,0.0222 -0.0698,0.0336 -0.004,0.003 -0.009,0.005 -0.0135,0.007 -0.008,0.004 -0.0161,0.008 -0.0244,0.0119 -0.0451,0.023 -0.0897,0.047 -0.13385,0.0718 -0.008,0.004 -0.0159,0.009 -0.0238,0.0135 -0.0164,0.009 -0.0325,0.0188 -0.0486,0.0284 -0.008,0.005 -0.0159,0.009 -0.0238,0.014 -0.0145,0.009 -0.0293,0.0175 -0.0439,0.0265 -0.014,0.009 -0.0285,0.0177 -0.0424,0.0269 -0.007,0.005 -0.014,0.009 -0.0212,0.0135 -0.007,0.004 -0.0132,0.009 -0.0196,0.013 -0.0172,0.0114 -0.0342,0.0225 -0.0512,0.0341 -0.0228,0.0154 -0.0458,0.0311 -0.0682,0.047 l -0.003,0.003 c -0.019,0.0137 -0.038,0.0277 -0.0568,0.0418 -0.007,0.005 -0.0145,0.0103 -0.0217,0.0156 -0.007,0.006 -0.0145,0.0117 -0.0217,0.0169 -0.0143,0.0108 -0.0287,0.0217 -0.0429,0.0325 -0.0188,0.0148 -0.0377,0.0298 -0.0563,0.0449 l -0.003,0.003 c -0.0122,0.01 -0.0246,0.0204 -0.0367,0.0305 -0.057,0.0475 -0.11271,0.0966 -0.1669,0.14727 -0.009,0.008 -0.0172,0.0164 -0.0259,0.0249 -0.0101,0.0101 -0.0198,0.0188 -0.03,0.0284 -0.0109,0.0109 -0.0217,0.0217 -0.0326,0.0326 -0.0122,0.0122 -0.0241,0.0243 -0.0362,0.0367 -0.003,0.003 -0.004,0.004 -0.007,0.007 -0.0151,0.0156 -0.03,0.0312 -0.0449,0.047 -0.0103,0.0109 -0.0204,0.022 -0.0305,0.0331 -0.007,0.007 -0.0132,0.0146 -0.0196,0.0217 -0.005,0.006 -0.0103,0.0116 -0.0156,0.0175 -0.0333,0.0374 -0.0657,0.0755 -0.0977,0.11422 -0.0122,0.0153 -0.0246,0.0306 -0.0367,0.046 -0.009,0.0114 -0.0182,0.023 -0.0274,0.0346 l -0.003,0.003 c -0.0148,0.0188 -0.0295,0.0379 -0.0439,0.0569 -0.007,0.01 -0.0145,0.0198 -0.0217,0.03 -0.0103,0.014 -0.0204,0.0282 -0.0305,0.0424 -0.0272,0.0379 -0.0538,0.0764 -0.0796,0.11525 -0.003,0.005 -0.006,0.0103 -0.009,0.0151 -0.0415,0.0637 -0.0812,0.12872 -0.11885,0.19481 -0.007,0.0124 -0.0143,0.0251 -0.0212,0.0377 l -0.003,0.006 c -0.0122,0.022 -0.0241,0.044 -0.0357,0.0661 -0.003,0.004 -0.005,0.009 -0.007,0.013 -0.0214,0.0409 -0.0421,0.0823 -0.062,0.12404 -0.009,0.0177 -0.0169,0.0357 -0.0254,0.0537 -0.008,-0.0188 -0.0172,-0.0373 -0.0259,-0.0558 -0.28279,-0.59005 -0.71123,-1.09834 -1.24489,-1.47693 -0.0462,-0.0327 -0.093,-0.0644 -0.14055,-0.0951 -0.0951,-0.0615 -0.19285,-0.11872 -0.293,-0.17159 -0.0501,-0.0262 -0.10075,-0.0513 -0.15192,-0.0754 -0.25625,-0.12083 -0.52507,-0.21304 -0.8015,-0.27493 -0.0552,-0.0124 -0.1107,-0.0235 -0.16643,-0.0336 -0.22309,-0.0398 -0.44926,-0.0599 -0.6759,-0.0599 -1.49072,1.6e-4 -2.84753,0.8604 -3.48353,2.20864 -0.005,0.0116 -0.0109,0.0233 -0.0161,0.0352 -0.62828,-1.36736 -1.99525,-2.24369 -3.50004,-2.2438 -1.50479,1.1e-4 -2.87176,0.87644 -3.50004,2.2438 -0.62828,-1.36736 -1.99528,-2.24369 -3.50004,-2.2438 -1.50469,0 -2.87163,0.87612 -3.50007,2.24327 -0.62841,-1.36715 -1.99535,-2.24327 -3.50004,-2.24327 -1.50479,1.1e-4 -2.87176,0.87644 -3.50004,2.2438 -0.37436,-0.81425 -1.0209,-1.47251 -1.8283,-1.86139 -0.14517,-1.17849 -0.81812,-2.18713 -1.77509,-2.78898 z m -87.56726,5.35265 c -0.8748,0.72094 -1.40346,1.80359 -1.40354,2.97088 0,0.17875 0.0132,0.35528 0.0372,0.52916 0.17878,-1.28968 1.00169,-2.41726 2.2066,-2.97087 -0.30676,-0.14095 -0.5873,-0.32068 -0.84026,-0.52917 z m 0,7.00008 c -0.8748,0.72097 -1.40346,1.80359 -1.40354,2.97088 0,0.17576 0.0145,0.35031 0.0382,0.52297 0.18056,-1.28712 1.00259,-2.41194 2.20557,-2.96468 -0.30676,-0.14094 -0.5873,-0.32068 -0.84026,-0.52917 z m 134.1117,5.07257 c -0.084,0.0692 -0.17123,0.13509 -0.26148,0.1974 h 0.48471 c -0.0717,-0.0691 -0.1466,-0.13425 -0.22323,-0.1974 z" />
          <path
             id="path7999"
             style="opacity:0.997;fill:#aaffaa;fill-opacity:1;stroke:none;stroke-width:0.27831;stroke-linecap:round;stroke-linejoin:round;stroke-miterlimit:4;stroke-dasharray:none;stroke-opacity:1"
             d="m 632.16237,676.16648 a 3.5515909,3.5515909 0 0 0 -3.52445,3.55154 3.5515909,3.5515909 0 0 0 0.0143,0.31624 3.5515909,3.5515909 0 0 1 3.53727,-3.23431 3.5515909,3.5515909 0 0 1 3.53724,3.23526 3.5515909,3.5515909 0 0 0 0.0143,-0.31719 3.5515909,3.5515909 0 0 0 -3.55151,-3.55154 3.5515909,3.5515909 0 0 0 -0.0271,0 z" />
          <path
             id="path8001"
             style="opacity:0.997;fill:#aaffaa;fill-opacity:1;stroke:none;stroke-width:0.27831;stroke-linecap:round;stroke-linejoin:round;stroke-miterlimit:4;stroke-dasharray:none;stroke-opacity:1"
             d="m 644.76848,670.02077 a 3.5515909,3.5515909 0 0 0 -3.52445,3.55153 3.5515909,3.5515909 0 0 0 0.0143,0.31625 3.5515909,3.5515909 0 0 1 3.53727,-3.23432 3.5515909,3.5515909 0 0 1 3.53724,3.23526 3.5515909,3.5515909 0 0 0 0.0143,-0.31719 3.5515909,3.5515909 0 0 0 -3.55151,-3.55153 3.5515909,3.5515909 0 0 0 -0.0271,0 z" />
          <path
             id="path8003"
             style="opacity:0.997;fill:#aaffaa;fill-opacity:1;stroke:none;stroke-width:0.27831;stroke-linecap:round;stroke-linejoin:round;stroke-miterlimit:4;stroke-dasharray:none;stroke-opacity:1"
             d="m 655.1705,679.83602 a 3.5515909,3.5515909 0 0 0 -3.52444,3.55153 3.5515909,3.5515909 0 0 0 0.0143,0.31624 3.5515909,3.5515909 0 0 1 3.53727,-3.23431 3.5515909,3.5515909 0 0 1 3.53725,3.23526 3.5515909,3.5515909 0 0 0 0.0143,-0.31719 3.5515909,3.5515909 0 0 0 -3.55151,-3.55153 3.5515909,3.5515909 0 0 0 -0.027,0 z" />
          <path
             id="path8005"
             style="opacity:0.997;fill:#aaffaa;fill-opacity:1;stroke:none;stroke-width:0.27831;stroke-linecap:round;stroke-linejoin:round;stroke-miterlimit:4;stroke-dasharray:none;stroke-opacity:1"
             d="m 617.44244,685.68812 a 3.5515909,3.5515909 0 0 0 -3.52445,3.55153 3.5515909,3.5515909 0 0 0 0.0143,0.31625 3.5515909,3.5515909 0 0 1 3.53727,-3.23432 3.5515909,3.5515909 0 0 1 3.53724,3.23526 3.5515909,3.5515909 0 0 0 0.0143,-0.31719 3.5515909,3.5515909 0 0 0 -3.55151,-3.55153 3.5515909,3.5515909 0 0 0 -0.0271,0 z" />
          <path
             id="path8007"
             style="opacity:0.997;fill:#aaffaa;fill-opacity:1;stroke:none;stroke-width:0.27831;stroke-linecap:round;stroke-linejoin:round;stroke-miterlimit:4;stroke-dasharray:none;stroke-opacity:1"
             d="m 614.07005,674.69203 a 3.5515909,3.5515909 0 0 0 -3.52445,3.55153 3.5515909,3.5515909 0 0 0 0.0143,0.31625 3.5515909,3.5515909 0 0 1 3.53727,-3.23432 3.5515909,3.5515909 0 0 1 3.53724,3.23526 3.5515909,3.5515909 0 0 0 0.0143,-0.31719 3.5515909,3.5515909 0 0 0 -3.55151,-3.55153 3.5515909,3.5515909 0 0 0 -0.0271,0 z" />
          <path
             id="path8009"
             style="opacity:0.997;fill:#aaffaa;fill-opacity:1;stroke:none;stroke-width:0.27831;stroke-linecap:round;stroke-linejoin:round;stroke-miterlimit:4;stroke-dasharray:none;stroke-opacity:1"
             d="m 667.03673,684.12387 a 3.5515909,3.5515909 0 0 0 -3.52445,3.55153 3.5515909,3.5515909 0 0 0 0.0143,0.31625 3.5515909,3.5515909 0 0 1 3.53727,-3.23432 3.5515909,3.5515909 0 0 1 3.53724,3.23526 3.5515909,3.5515909 0 0 0 0.0143,-0.31719 3.5515909,3.5515909 0 0 0 -3.55151,-3.55153 3.5515909,3.5515909 0 0 0 -0.0271,0 z" />
          <path
             id="path8011"
             style="opacity:0.997;fill:#aaffaa;fill-opacity:1;stroke:none;stroke-width:0.27831;stroke-linecap:round;stroke-linejoin:round;stroke-miterlimit:4;stroke-dasharray:none;stroke-opacity:1"
             d="m 713.14682,685.60132 a 3.5515909,3.5515909 0 0 0 -3.52445,3.55153 3.5515909,3.5515909 0 0 0 0.0143,0.31625 3.5515909,3.5515909 0 0 1 3.53727,-3.23432 3.5515909,3.5515909 0 0 1 3.53724,3.23526 3.5515909,3.5515909 0 0 0 0.0143,-0.31719 3.5515909,3.5515909 0 0 0 -3.55151,-3.55153 3.5515909,3.5515909 0 0 0 -0.0271,0 z" />
          <path
             id="path8013"
             style="opacity:0.997;fill:#aaffaa;fill-opacity:1;stroke:none;stroke-width:0.27831;stroke-linecap:round;stroke-linejoin:round;stroke-miterlimit:4;stroke-dasharray:none;stroke-opacity:1"
             d="m 724.82431,682.30706 a 3.5515909,3.5515909 0 0 0 -3.52445,3.55153 3.5515909,3.5515909 0 0 0 0.0143,0.31625 3.5515909,3.5515909 0 0 1 3.53727,-3.23432 3.5515909,3.5515909 0 0 1 3.53724,3.23526 3.5515909,3.5515909 0 0 0 0.0143,-0.31719 3.5515909,3.5515909 0 0 0 -3.55151,-3.55153 3.5515909,3.5515909 0 0 0 -0.0271,0 z" />
          <path
             id="path8015"
             style="opacity:0.997;fill:#aaffaa;fill-opacity:1;stroke:none;stroke-width:0.27831;stroke-linecap:round;stroke-linejoin:round;stroke-miterlimit:4;stroke-dasharray:none;stroke-opacity:1"
             d="m 696.35431,688.56704 a 3.5515909,3.5515909 0 0 0 -3.52445,3.55153 3.5515909,3.5515909 0 0 0 0.0143,0.31625 3.5515909,3.5515909 0 0 1 3.53727,-3.23432 3.5515909,3.5515909 0 0 1 3.53724,3.23526 3.5515909,3.5515909 0 0 0 0.0143,-0.31719 3.5515909,3.5515909 0 0 0 -3.55151,-3.55153 3.5515909,3.5515909 0 0 0 -0.0271,0 z" />
          <path
             id="path8017"
             style="opacity:0.997;fill:#aaffaa;fill-opacity:1;stroke:none;stroke-width:0.27831;stroke-linecap:round;stroke-linejoin:round;stroke-miterlimit:4;stroke-dasharray:none;stroke-opacity:1"
             d="m 689.14823,682.78891 a 3.5515909,3.5515909 0 0 0 -3.52445,3.55153 3.5515909,3.5515909 0 0 0 0.0143,0.31625 3.5515909,3.5515909 0 0 1 3.53727,-3.23432 3.5515909,3.5515909 0 0 1 3.53724,3.23526 3.5515909,3.5515909 0 0 0 0.0143,-0.31719 3.5515909,3.5515909 0 0 0 -3.55151,-3.55153 3.5515909,3.5515909 0 0 0 -0.0271,0 z" />
          <path
             id="path8019"
             style="opacity:0.997;fill:#aaffaa;fill-opacity:1;stroke:none;stroke-width:0.27831;stroke-linecap:round;stroke-linejoin:round;stroke-miterlimit:4;stroke-dasharray:none;stroke-opacity:1"
             d="m 675.14385,673.29533 a 3.5515909,3.5515909 0 0 0 -3.52445,3.55153 3.5515909,3.5515909 0 0 0 0.0143,0.31625 3.5515909,3.5515909 0 0 1 3.53727,-3.23432 3.5515909,3.5515909 0 0 1 3.53724,3.23526 3.5515909,3.5515909 0 0 0 0.0143,-0.31719 3.5515909,3.5515909 0 0 0 -3.55151,-3.55153 3.5515909,3.5515909 0 0 0 -0.0271,0 z" />
        </g>
      </g>
      <g
         id="g11672"
         transform="matrix(0.4590808,0,0,0.4590808,-184.04925,-148.74761)">
        <path
           id="path10795"
           style="fill:#2aff2a;fill-opacity:1;stroke:none;stroke-width:0.13909;stroke-linecap:round;stroke-linejoin:round;stroke-miterlimit:4;stroke-dasharray:none;stroke-opacity:1"
           d="m 835.45175,672.89138 2.8e-4,0.002 c 1.04331,0.006 1.91042,0.80559 2.0017,1.84492 0.2191,-0.0787 0.45015,-0.11899 0.68297,-0.11907 1.11658,4e-5 2.02173,0.9052 2.02177,2.02178 h 2.8e-4 c 1.11658,4e-5 2.02173,0.90519 2.02177,2.02178 2e-5,0.31699 -0.0745,0.62954 -0.21752,0.91242 0.74868,0.2518 1.28218,0.91656 1.36593,1.702 0.61076,0.14058 1.1218,0.55645 1.38356,1.12589 0.32977,-0.71769 1.04725,-1.17765 1.83706,-1.1777 1.048,10e-5 1.9222,0.80097 2.01391,1.84493 0.21911,-0.0787 0.45016,-0.11901 0.68297,-0.11908 1.11658,4e-5 2.02173,0.90519 2.02177,2.02178 h 2.8e-4 c 1.11658,4e-5 2.02173,0.90519 2.02178,2.02177 2e-5,0.31699 -0.0745,0.62955 -0.21753,0.91243 0.82293,0.27677 1.37728,1.04805 1.37732,1.91628 0,0.78976 -0.45984,1.50721 -1.17742,1.83706 0.71651,0.32935 1.17605,1.04518 1.17742,1.83353 h -78.72419 c -0.81687,-0.2109 -1.43185,-0.91559 -1.50778,-1.77955 3e-5,-1.11658 0.90519,-2.02174 2.02177,-2.02178 4e-5,-1.11658 0.9052,-2.02173 2.02178,-2.02177 0.29756,0.17466 0.54546,0.42255 0.72012,0.72012 -0.0299,-0.13943 -0.045,-0.28162 -0.045,-0.42422 5e-5,-1.11658 0.9052,-2.02173 2.02178,-2.02177 0.78976,0 1.50722,0.45986 1.83706,1.17744 0.32985,-0.71758 1.0473,-1.17744 1.83706,-1.17744 0.78983,6e-5 1.50732,0.46001 1.83708,1.1777 0.32977,-0.71769 1.04725,-1.17764 1.83706,-1.1777 0.78977,0 1.50722,0.45986 1.83707,1.17744 0.32984,-0.71758 1.0473,-1.17744 1.83706,-1.17744 0.78976,0 1.50721,0.45986 1.83706,1.17744 0.32985,-0.71758 1.0473,-1.17744 1.83706,-1.17744 0.0141,2e-5 0.0282,0 0.0423,0 0.10938,-0.92943 0.84227,-1.66232 1.77169,-1.7717 -0.9768,-0.0858 -1.75121,-0.86025 -1.83706,-1.83706 0.0859,-0.97681 0.86026,-1.75121 1.83706,-1.83706 -0.97682,-0.0858 -1.75121,-0.86024 -1.83706,-1.83706 4e-5,-1.11659 0.9052,-2.02174 2.02178,-2.02178 -0.76328,-1.74367 1.68128,-3.06954 2.74217,-1.30192 -0.0299,-0.13942 -0.045,-0.28162 -0.045,-0.42422 5e-5,-1.11658 0.90519,-2.02173 2.02178,-2.02177 0.78976,0 1.50721,0.45984 1.83706,1.17742 0.32985,-0.71758 1.0473,-1.17742 1.83706,-1.17742 0.78982,6e-5 1.5073,0.46001 1.83707,1.1777 0.32976,-0.71769 1.04724,-1.17764 1.83706,-1.1777 0.78982,6e-5 1.50731,0.46001 1.83708,1.1777 0.32976,-0.71769 1.04724,-1.17764 1.83706,-1.1777 0.78982,4e-5 1.5073,0.46001 1.83706,1.1777 0.32977,-0.71769 1.04725,-1.17764 1.83707,-1.1777 0.78971,0 1.50707,0.46011 1.83679,1.1777 0.32977,-0.71769 1.04725,-1.17764 1.83706,-1.1777 0.78983,6e-5 1.50731,0.46001 1.83707,1.1777 0.32977,-0.71769 1.04725,-1.17764 1.83706,-1.1777 0.78976,0 1.50723,0.45984 1.83707,1.17742 0.32984,-0.71758 1.04731,-1.17742 1.83706,-1.17742 0.78982,6e-5 1.50731,0.46001 1.83707,1.1777 0.32977,-0.71769 1.04725,-1.17764 1.83706,-1.1777 0.78982,6e-5 1.5073,0.46001 1.83707,1.1777 0.32977,-0.71769 1.04725,-1.17764 1.83706,-1.1777 0.004,-2e-5 0.008,-2e-5 0.0122,0 z" />
        <g
           id="g11573"
           style="fill:#aaffaa;fill-opacity:1">
          <path
             id="path10797"
             style="opacity:0.997;fill:#aaffaa;fill-opacity:1;stroke:none;stroke-width:0.146076;stroke-linecap:round;stroke-linejoin:round;stroke-miterlimit:4;stroke-dasharray:none;stroke-opacity:1"
             d="m 833.71611,687.71456 a 1.8641201,1.8641201 0 0 1 1.84987,1.86408 1.8641201,1.8641201 0 0 1 -0.007,0.16599 1.8641201,1.8641201 0 0 0 -1.85661,-1.69759 1.8641201,1.8641201 0 0 0 -1.8566,1.69809 1.8641201,1.8641201 0 0 1 -0.008,-0.16649 1.8641201,1.8641201 0 0 1 1.86408,-1.86408 1.8641201,1.8641201 0 0 1 0.0142,0 z" />
          <path
             id="path10799"
             style="opacity:0.997;fill:#aaffaa;fill-opacity:1;stroke:none;stroke-width:0.146076;stroke-linecap:round;stroke-linejoin:round;stroke-miterlimit:4;stroke-dasharray:none;stroke-opacity:1"
             d="m 825.03096,682.70387 a 1.8641201,1.8641201 0 0 1 1.84987,1.86409 1.8641201,1.8641201 0 0 1 -0.008,0.16598 1.8641201,1.8641201 0 0 0 -1.85661,-1.69759 1.8641201,1.8641201 0 0 0 -1.85659,1.69809 1.8641201,1.8641201 0 0 1 -0.008,-0.16648 1.8641201,1.8641201 0 0 1 1.86409,-1.86409 1.8641201,1.8641201 0 0 1 0.0142,0 z" />
          <path
             id="path10801"
             style="opacity:0.997;fill:#aaffaa;fill-opacity:1;stroke:none;stroke-width:0.146076;stroke-linecap:round;stroke-linejoin:round;stroke-miterlimit:4;stroke-dasharray:none;stroke-opacity:1"
             d="m 837.86867,681.9601 a 1.8641201,1.8641201 0 0 1 1.84987,1.86409 1.8641201,1.8641201 0 0 1 -0.008,0.16599 1.8641201,1.8641201 0 0 0 -1.8566,-1.69759 1.8641201,1.8641201 0 0 0 -1.8566,1.69808 1.8641201,1.8641201 0 0 1 -0.008,-0.16648 1.8641201,1.8641201 0 0 1 1.86408,-1.86409 1.8641201,1.8641201 0 0 1 0.0142,0 z" />
          <path
             id="path10803"
             style="opacity:0.997;fill:#aaffaa;fill-opacity:1;stroke:none;stroke-width:0.146076;stroke-linecap:round;stroke-linejoin:round;stroke-miterlimit:4;stroke-dasharray:none;stroke-opacity:1"
             d="m 829.08391,677.62764 a 1.8641201,1.8641201 0 0 1 1.84987,1.86409 1.8641201,1.8641201 0 0 1 -0.007,0.16599 1.8641201,1.8641201 0 0 0 -1.85661,-1.69759 1.8641201,1.8641201 0 0 0 -1.8566,1.69809 1.8641201,1.8641201 0 0 1 -0.008,-0.16649 1.8641201,1.8641201 0 0 1 1.86408,-1.86409 1.8641201,1.8641201 0 0 1 0.0142,0 z" />
          <path
             id="path10805"
             style="opacity:0.997;fill:#aaffaa;fill-opacity:1;stroke:none;stroke-width:0.146076;stroke-linecap:round;stroke-linejoin:round;stroke-miterlimit:4;stroke-dasharray:none;stroke-opacity:1"
             d="m 837.46798,675.8481 a 1.8641201,1.8641201 0 0 1 1.84987,1.86409 1.8641201,1.8641201 0 0 1 -0.008,0.16599 1.8641201,1.8641201 0 0 0 -1.8566,-1.69759 1.8641201,1.8641201 0 0 0 -1.8566,1.69808 1.8641201,1.8641201 0 0 1 -0.007,-0.16648 1.8641201,1.8641201 0 0 1 1.86408,-1.86409 1.8641201,1.8641201 0 0 1 0.0142,0 z" />
          <path
             id="path10807"
             style="opacity:0.997;fill:#aaffaa;fill-opacity:1;stroke:none;stroke-width:0.146076;stroke-linecap:round;stroke-linejoin:round;stroke-miterlimit:4;stroke-dasharray:none;stroke-opacity:1"
             d="m 847.83499,689.54848 a 1.8641201,1.8641201 0 0 1 1.84987,1.86409 1.8641201,1.8641201 0 0 1 -0.008,0.16598 1.8641201,1.8641201 0 0 0 -1.85661,-1.69759 1.8641201,1.8641201 0 0 0 -1.85659,1.69809 1.8641201,1.8641201 0 0 1 -0.008,-0.16648 1.8641201,1.8641201 0 0 1 1.86408,-1.86409 1.8641201,1.8641201 0 0 1 0.0142,0 z" />
          <path
             id="path10809"
             style="opacity:0.997;fill:#aaffaa;fill-opacity:1;stroke:none;stroke-width:0.146076;stroke-linecap:round;stroke-linejoin:round;stroke-miterlimit:4;stroke-dasharray:none;stroke-opacity:1"
             d="m 843.78627,685.86471 a 1.8641201,1.8641201 0 0 1 1.84987,1.86409 1.8641201,1.8641201 0 0 1 -0.008,0.16598 1.8641201,1.8641201 0 0 0 -1.85661,-1.69759 1.8641201,1.8641201 0 0 0 -1.85659,1.69809 1.8641201,1.8641201 0 0 1 -0.008,-0.16648 1.8641201,1.8641201 0 0 1 1.86408,-1.86409 1.8641201,1.8641201 0 0 1 0.0142,0 z" />
          <path
             id="path10811"
             style="opacity:0.997;fill:#aaffaa;fill-opacity:1;stroke:none;stroke-width:0.146076;stroke-linecap:round;stroke-linejoin:round;stroke-miterlimit:4;stroke-dasharray:none;stroke-opacity:1"
             d="m 824.71377,689.13853 a 1.8641201,1.8641201 0 0 1 1.84987,1.86409 1.8641201,1.8641201 0 0 1 -0.008,0.16598 1.8641201,1.8641201 0 0 0 -1.85661,-1.69759 1.8641201,1.8641201 0 0 0 -1.85659,1.69809 1.8641201,1.8641201 0 0 1 -0.008,-0.16648 1.8641201,1.8641201 0 0 1 1.86409,-1.86409 1.8641201,1.8641201 0 0 1 0.0142,0 z" />
          <path
             id="path10813"
             style="opacity:0.997;fill:#aaffaa;fill-opacity:1;stroke:none;stroke-width:0.146076;stroke-linecap:round;stroke-linejoin:round;stroke-miterlimit:4;stroke-dasharray:none;stroke-opacity:1"
             d="m 819.73108,679.48847 a 1.8641201,1.8641201 0 0 1 1.84987,1.86409 1.8641201,1.8641201 0 0 1 -0.008,0.16598 1.8641201,1.8641201 0 0 0 -1.85661,-1.69759 1.8641201,1.8641201 0 0 0 -1.8566,1.69809 1.8641201,1.8641201 0 0 1 -0.007,-0.16648 1.8641201,1.8641201 0 0 1 1.86408,-1.86409 1.8641201,1.8641201 0 0 1 0.0142,0 z" />
          <path
             id="path10815"
             style="opacity:0.997;fill:#aaffaa;fill-opacity:1;stroke:none;stroke-width:0.146076;stroke-linecap:round;stroke-linejoin:round;stroke-miterlimit:4;stroke-dasharray:none;stroke-opacity:1"
             d="m 814.86031,676.0059 a 1.8641201,1.8641201 0 0 1 1.84987,1.86409 1.8641201,1.8641201 0 0 1 -0.008,0.16599 1.8641201,1.8641201 0 0 0 -1.85661,-1.69759 1.8641201,1.8641201 0 0 0 -1.85659,1.69809 1.8641201,1.8641201 0 0 1 -0.008,-0.16649 1.8641201,1.8641201 0 0 1 1.86409,-1.86409 1.8641201,1.8641201 0 0 1 0.0142,0 z" />
          <path
             id="path10817"
             style="opacity:0.997;fill:#aaffaa;fill-opacity:1;stroke:none;stroke-width:0.146076;stroke-linecap:round;stroke-linejoin:round;stroke-miterlimit:4;stroke-dasharray:none;stroke-opacity:1"
             d="m 822.93015,676.19497 a 1.8641201,1.8641201 0 0 1 1.84987,1.86409 1.8641201,1.8641201 0 0 1 -0.008,0.16599 1.8641201,1.8641201 0 0 0 -1.85661,-1.69759 1.8641201,1.8641201 0 0 0 -1.85659,1.69808 1.8641201,1.8641201 0 0 1 -0.008,-0.16648 1.8641201,1.8641201 0 0 1 1.86408,-1.86409 1.8641201,1.8641201 0 0 1 0.0142,0 z" />
          <path
             id="path10819"
             style="opacity:0.997;fill:#aaffaa;fill-opacity:1;stroke:none;stroke-width:0.146076;stroke-linecap:round;stroke-linejoin:round;stroke-miterlimit:4;stroke-dasharray:none;stroke-opacity:1"
             d="m 817.92708,685.34107 a 1.8641201,1.8641201 0 0 1 1.84987,1.86409 1.8641201,1.8641201 0 0 1 -0.008,0.16599 1.8641201,1.8641201 0 0 0 -1.8566,-1.69759 1.8641201,1.8641201 0 0 0 -1.8566,1.69808 1.8641201,1.8641201 0 0 1 -0.008,-0.16648 1.8641201,1.8641201 0 0 1 1.86408,-1.86409 1.8641201,1.8641201 0 0 1 0.0142,0 z" />
          <path
             id="path10821"
             style="opacity:0.997;fill:#aaffaa;fill-opacity:1;stroke:none;stroke-width:0.146076;stroke-linecap:round;stroke-linejoin:round;stroke-miterlimit:4;stroke-dasharray:none;stroke-opacity:1"
             d="m 813.01318,682.68485 a 1.8641201,1.8641201 0 0 1 1.84987,1.86408 1.8641201,1.8641201 0 0 1 -0.008,0.16599 1.8641201,1.8641201 0 0 0 -1.85661,-1.69759 1.8641201,1.8641201 0 0 0 -1.85659,1.69809 1.8641201,1.8641201 0 0 1 -0.008,-0.16649 1.8641201,1.8641201 0 0 1 1.86409,-1.86408 1.8641201,1.8641201 0 0 1 0.0142,0 z" />
          <path
             id="path10823"
             style="opacity:0.997;fill:#aaffaa;fill-opacity:1;stroke:none;stroke-width:0.146076;stroke-linecap:round;stroke-linejoin:round;stroke-miterlimit:4;stroke-dasharray:none;stroke-opacity:1"
             d="m 806.31317,680.83527 a 1.8641201,1.8641201 0 0 1 1.84987,1.86408 1.8641201,1.8641201 0 0 1 -0.008,0.16599 1.8641201,1.8641201 0 0 0 -1.85661,-1.69759 1.8641201,1.8641201 0 0 0 -1.85659,1.69809 1.8641201,1.8641201 0 0 1 -0.008,-0.16649 1.8641201,1.8641201 0 0 1 1.86409,-1.86408 1.8641201,1.8641201 0 0 1 0.0142,0 z" />
          <path
             id="path10825"
             style="opacity:0.997;fill:#aaffaa;fill-opacity:1;stroke:none;stroke-width:0.146076;stroke-linecap:round;stroke-linejoin:round;stroke-miterlimit:4;stroke-dasharray:none;stroke-opacity:1"
             d="m 802.91389,686.05125 a 1.8641201,1.8641201 0 0 1 1.84987,1.86408 1.8641201,1.8641201 0 0 1 -0.008,0.16599 1.8641201,1.8641201 0 0 0 -1.8566,-1.69759 1.8641201,1.8641201 0 0 0 -1.8566,1.69809 1.8641201,1.8641201 0 0 1 -0.008,-0.16649 1.8641201,1.8641201 0 0 1 1.86408,-1.86408 1.8641201,1.8641201 0 0 1 0.0142,0 z" />
          <path
             id="path10827"
             style="opacity:0.997;fill:#aaffaa;fill-opacity:1;stroke:none;stroke-width:0.146076;stroke-linecap:round;stroke-linejoin:round;stroke-miterlimit:4;stroke-dasharray:none;stroke-opacity:1"
             d="m 815.01456,690.07363 a 1.8641201,1.8641201 0 0 1 1.84987,1.86409 1.8641201,1.8641201 0 0 1 -0.008,0.16599 1.8641201,1.8641201 0 0 0 -1.85661,-1.69759 1.8641201,1.8641201 0 0 0 -1.85659,1.69808 1.8641201,1.8641201 0 0 1 -0.008,-0.16648 1.8641201,1.8641201 0 0 1 1.86409,-1.86409 1.8641201,1.8641201 0 0 1 0.0142,0 z" />
          <path
             id="path10829"
             style="opacity:0.997;fill:#aaffaa;fill-opacity:1;stroke:none;stroke-width:0.146076;stroke-linecap:round;stroke-linejoin:round;stroke-miterlimit:4;stroke-dasharray:none;stroke-opacity:1"
             d="m 796.46726,690.62912 a 1.8641201,1.8641201 0 0 1 1.84987,1.86409 1.8641201,1.8641201 0 0 1 -0.008,0.16599 1.8641201,1.8641201 0 0 0 -1.85661,-1.69759 1.8641201,1.8641201 0 0 0 -1.85659,1.69808 1.8641201,1.8641201 0 0 1 -0.008,-0.16648 1.8641201,1.8641201 0 0 1 1.86408,-1.86409 1.8641201,1.8641201 0 0 1 0.0142,0 z" />
          <path
             id="path10831"
             style="opacity:0.997;fill:#aaffaa;fill-opacity:1;stroke:none;stroke-width:0.146076;stroke-linecap:round;stroke-linejoin:round;stroke-miterlimit:4;stroke-dasharray:none;stroke-opacity:1"
             d="m 801.97339,676.80953 a 1.8641201,1.8641201 0 0 1 1.84987,1.86408 1.8641201,1.8641201 0 0 1 -0.008,0.16599 1.8641201,1.8641201 0 0 0 -1.85661,-1.69759 1.8641201,1.8641201 0 0 0 -1.85659,1.69809 1.8641201,1.8641201 0 0 1 -0.008,-0.16649 1.8641201,1.8641201 0 0 1 1.86408,-1.86408 1.8641201,1.8641201 0 0 1 0.0142,0 z" />
          <path
             id="path10833"
             style="opacity:0.997;fill:#aaffaa;fill-opacity:1;stroke:none;stroke-width:0.146076;stroke-linecap:round;stroke-linejoin:round;stroke-miterlimit:4;stroke-dasharray:none;stroke-opacity:1"
             d="m 789.47202,688.56599 a 1.8641201,1.8641201 0 0 1 1.84986,1.86409 1.8641201,1.8641201 0 0 1 -0.007,0.16598 1.8641201,1.8641201 0 0 0 -1.85661,-1.69759 1.8641201,1.8641201 0 0 0 -1.85659,1.69809 1.8641201,1.8641201 0 0 1 -0.008,-0.16648 1.8641201,1.8641201 0 0 1 1.86408,-1.86409 1.8641201,1.8641201 0 0 1 0.0142,0 z" />
          <path
             id="path10835"
             style="opacity:0.997;fill:#aaffaa;fill-opacity:1;stroke:none;stroke-width:0.146076;stroke-linecap:round;stroke-linejoin:round;stroke-miterlimit:4;stroke-dasharray:none;stroke-opacity:1"
             d="m 783.23891,689.35968 a 1.8641201,1.8641201 0 0 1 1.84987,1.86409 1.8641201,1.8641201 0 0 1 -0.008,0.16599 1.8641201,1.8641201 0 0 0 -1.85661,-1.69759 1.8641201,1.8641201 0 0 0 -1.8566,1.69809 1.8641201,1.8641201 0 0 1 -0.007,-0.16649 1.8641201,1.8641201 0 0 1 1.86408,-1.86409 1.8641201,1.8641201 0 0 1 0.0142,0 z" />
          <path
             id="path10837"
             style="fill:#aaffaa;fill-opacity:1;stroke:none;stroke-width:0.13909;stroke-linecap:round;stroke-linejoin:round;stroke-miterlimit:4;stroke-dasharray:none;stroke-opacity:1"
             d="m 835.45175,672.89219 2.8e-4,10e-4 c 1.04331,0.006 1.91042,0.80561 2.0017,1.84494 0.2191,-0.0787 0.45016,-0.119 0.68297,-0.11907 1.11658,4e-5 2.02173,0.90518 2.02177,2.02176 h 2.8e-4 c 1.11658,6e-5 2.02173,0.9052 2.02178,2.02178 0,0.0933 -0.008,0.18585 -0.0212,0.27774 -0.13572,-0.98478 -0.97853,-1.74399 -2.00062,-1.74403 h -2.8e-4 c -4e-5,-1.11658 -0.90519,-2.02172 -2.02177,-2.02176 -0.23281,7e-5 -0.46387,0.0403 -0.68297,0.11907 -0.0913,-1.03933 -0.95839,-1.83854 -2.0017,-1.84494 l -2.8e-4,-10e-4 c -0.004,-3e-5 -0.008,-3e-5 -0.0122,0 -0.78981,6e-5 -1.5073,0.46 -1.83706,1.17769 -0.32977,-0.71769 -1.04725,-1.17763 -1.83707,-1.17769 -0.78981,6e-5 -1.5073,0.46 -1.83706,1.17769 -0.32977,-0.71769 -1.04725,-1.17763 -1.83707,-1.17769 -0.78975,0 -1.50722,0.45985 -1.83706,1.17742 -0.32985,-0.71757 -1.04731,-1.17742 -1.83707,-1.17742 -0.78981,6e-5 -1.5073,0.46 -1.83706,1.17769 -0.32977,-0.71769 -1.04724,-1.17763 -1.83707,-1.17769 -0.78981,6e-5 -1.5073,0.46 -1.83706,1.17769 -0.32972,-0.71759 -1.04708,-1.17769 -1.8368,-1.17769 -0.78981,6e-5 -1.5073,0.46 -1.83706,1.17769 -0.32977,-0.71769 -1.04725,-1.17765 -1.83706,-1.17769 -0.78982,6e-5 -1.5073,0.46 -1.83706,1.17769 -0.32977,-0.71769 -1.04726,-1.17763 -1.83708,-1.17769 -0.78982,6e-5 -1.5073,0.46 -1.83706,1.17769 -0.32977,-0.71769 -1.04725,-1.17763 -1.83707,-1.17769 -0.78976,0 -1.50721,0.45985 -1.83706,1.17742 -0.32985,-0.71757 -1.0473,-1.17742 -1.83706,-1.17742 -1.02153,3e-5 -1.86392,0.75842 -2.00035,1.7424 -0.0126,-0.0916 -0.0214,-0.18355 -0.0214,-0.27611 4e-5,-1.11658 0.9052,-2.02173 2.02178,-2.02178 0.78976,0 1.50721,0.45985 1.83706,1.17743 0.32985,-0.71758 1.0473,-1.17743 1.83706,-1.17743 0.78982,6e-5 1.5073,0.46 1.83707,1.17769 0.32976,-0.71769 1.04724,-1.17763 1.83706,-1.17769 0.78982,6e-5 1.50731,0.46 1.83708,1.17769 0.32976,-0.71769 1.04724,-1.17763 1.83706,-1.17769 0.78981,5e-5 1.50729,0.46 1.83706,1.17769 0.32976,-0.71769 1.04725,-1.17763 1.83706,-1.17769 0.78972,0 1.50708,0.4601 1.8368,1.17769 0.32976,-0.71769 1.04725,-1.17763 1.83706,-1.17769 0.78983,6e-5 1.5073,0.46 1.83707,1.17769 0.32976,-0.71769 1.04725,-1.17763 1.83706,-1.17769 0.78976,0 1.50722,0.45985 1.83707,1.17743 0.32984,-0.71758 1.04731,-1.17743 1.83706,-1.17743 0.78982,6e-5 1.5073,0.46 1.83707,1.17769 0.32976,-0.71769 1.04725,-1.17763 1.83706,-1.17769 0.78982,6e-5 1.5073,0.46 1.83707,1.17769 0.32976,-0.71769 1.04725,-1.17763 1.83706,-1.17769 0.004,-2e-5 0.008,-2e-5 0.0122,0 z m -36.45379,1.61112 c 0.48928,-0.0143 0.99914,0.2143 1.36213,0.78061 -0.006,0.0612 -0.009,0.12289 -0.009,0.18554 5e-5,0.14259 0.0151,0.28478 0.045,0.42419 -0.85778,-1.42919 -2.61945,-0.83584 -2.85934,0.36536 -0.18096,-0.96961 0.6064,-1.73069 1.4614,-1.7557 z m -1.48337,2.14383 c 0.0132,0.17579 0.0564,0.35943 0.13913,0.54844 -0.99936,4e-5 -1.8273,0.72588 -1.99058,1.67866 -0.0136,-0.0697 -0.0249,-0.14027 -0.0312,-0.21238 4e-5,-1.06958 0.83125,-1.94288 1.88264,-2.01472 z m 44.61873,2.9947 c 0.65815,0.28987 1.11837,0.91072 1.19559,1.63499 0.61077,0.14058 1.12181,0.55646 1.38357,1.12589 0.32976,-0.71769 1.04724,-1.17763 1.83706,-1.17769 1.048,1e-4 1.9222,0.80096 2.01391,1.84492 0.2191,-0.0787 0.45016,-0.11899 0.68297,-0.11906 1.11658,4e-5 2.02173,0.90519 2.02177,2.02177 h 2.8e-4 c 1.11658,4e-5 2.02173,0.90519 2.02178,2.02178 0,0.0933 -0.008,0.18585 -0.0212,0.27774 -0.13572,-0.98478 -0.97853,-1.74399 -2.00062,-1.74403 h -2.8e-4 c -4e-5,-1.11658 -0.90519,-2.02174 -2.02177,-2.02178 -0.23281,7e-5 -0.46387,0.0404 -0.68297,0.11907 -0.0917,-1.04397 -0.96591,-1.84482 -2.01391,-1.84492 -0.78982,5e-5 -1.5073,0.46 -1.83706,1.17768 -0.26176,-0.56942 -0.7728,-0.9853 -1.38357,-1.12588 -0.0837,-0.78545 -0.61724,-1.4502 -1.36593,-1.70199 0.0784,-0.15513 0.1341,-0.31968 0.17034,-0.48849 z m -45.52194,1.13484 c 0.25482,0.15201 0.5457,0.25032 0.85763,0.27775 -0.88193,0.0775 -1.59708,0.71702 -1.79122,1.55932 -0.0209,-0.0906 -0.0375,-0.18287 -0.0458,-0.27775 0.0584,-0.66487 0.43629,-1.2353 0.97943,-1.55932 z m 0.0252,3.68932 c 0.2487,0.14348 0.53081,0.23604 0.83241,0.26255 -0.92941,0.10938 -1.66232,0.84227 -1.7717,1.7717 -0.0141,0 -0.0282,3e-5 -0.0423,0 -0.78975,0 -1.50722,0.45984 -1.83706,1.17742 -0.32985,-0.71758 -1.0473,-1.17742 -1.83707,-1.17742 -0.78976,0 -1.50721,0.45984 -1.83706,1.17742 -0.32985,-0.71758 -1.0473,-1.17742 -1.83706,-1.17742 -0.78982,6e-5 -1.5073,0.46001 -1.83706,1.1777 -0.32977,-0.71769 -1.04725,-1.17764 -1.83708,-1.1777 -0.78975,0 -1.50722,0.45984 -1.83706,1.17742 -0.32984,-0.71758 -1.0473,-1.17742 -1.83707,-1.17742 -1.0218,4e-5 -1.86428,0.75882 -2.00035,1.74321 -0.0128,-0.0918 -0.0214,-0.1841 -0.0214,-0.27692 4e-5,-1.11658 0.90519,-2.02174 2.02177,-2.02178 0.78977,0 1.50723,0.45985 1.83707,1.17743 0.32984,-0.71758 1.04731,-1.17743 1.83706,-1.17743 0.78983,6e-5 1.50731,0.46002 1.83708,1.1777 0.32976,-0.71768 1.04724,-1.17764 1.83706,-1.1777 0.78976,0 1.50721,0.45985 1.83706,1.17743 0.32985,-0.71758 1.0473,-1.17743 1.83706,-1.17743 0.78977,0 1.50722,0.45985 1.83707,1.17743 0.32984,-0.71758 1.04731,-1.17743 1.83706,-1.17743 0.0141,3e-5 0.0282,0 0.0423,0 0.0736,-0.62574 0.4307,-1.16149 0.93929,-1.47876 z m -18.37499,3.20462 c 0.27842,0.16344 0.51244,0.39162 0.6846,0.66398 -0.006,0.0618 -0.009,0.12414 -0.009,0.18743 0,0.14259 0.0151,0.28477 0.045,0.42421 -0.17465,-0.29756 -0.42255,-0.54548 -0.72011,-0.72014 -1.11659,5e-5 -2.02174,0.9052 -2.02178,2.02178 -0.99926,4e-5 -1.82693,0.72574 -1.99031,1.6784 -0.0136,-0.0697 -0.0251,-0.14005 -0.0315,-0.21211 5e-5,-1.11658 0.9052,-2.02173 2.02178,-2.02178 4e-5,-1.11658 0.90519,-2.02173 2.02178,-2.02177 z m 74.98171,0.30297 c 0.7278,0.32046 1.20667,1.04292 1.20671,1.84954 0,0.095 -0.007,0.18888 -0.0201,0.28127 -0.10291,-0.75291 -0.62224,-1.39484 -1.35725,-1.64205 0.0785,-0.15523 0.13438,-0.31983 0.17061,-0.48876 z m 0.47004,3.96434 c 0.4582,0.37772 0.73561,0.94452 0.73667,1.55581 h -0.0792 c -0.16027,-0.55685 -0.55524,-1.02847 -1.09822,-1.27806 0.16094,-0.074 0.30802,-0.16833 0.44075,-0.27775 z" />
        </g>
      </g>
    </g>
  </g>
</svg>
