<?xml version="1.0" encoding="UTF-8" standalone="no"?>
<svg
   xmlns:dc="http://purl.org/dc/elements/1.1/"
   xmlns:cc="http://creativecommons.org/ns#"
   xmlns:rdf="http://www.w3.org/1999/02/22-rdf-syntax-ns#"
   xmlns:svg="http://www.w3.org/2000/svg"
   xmlns="http://www.w3.org/2000/svg"
   xmlns:sodipodi="http://sodipodi.sourceforge.net/DTD/sodipodi-0.dtd"
   xmlns:inkscape="http://www.inkscape.org/namespaces/inkscape"
   width="10.800487mm"
   height="30.654737mm"
   viewBox="0 0 10.800487 30.654737"
   version="1.1"
   id="svg3621"
   inkscape:version="1.0.1 (3bc2e813f5, 2020-09-07)"
   sodipodi:docname="bunga.svg">
  <defs
     id="defs3615" />
  <sodipodi:namedview
     id="base"
     pagecolor="#ffffff"
     bordercolor="#666666"
     borderopacity="1.0"
     inkscape:pageopacity="0.0"
     inkscape:pageshadow="2"
     inkscape:zoom="1.979899"
     inkscape:cx="-36.012618"
     inkscape:cy="60.672404"
     inkscape:document-units="mm"
     inkscape:current-layer="layer1"
     inkscape:document-rotation="0"
     showgrid="false"
     fit-margin-top="0"
     fit-margin-left="0"
     fit-margin-right="0"
     fit-margin-bottom="0"
     inkscape:window-width="1366"
     inkscape:window-height="743"
     inkscape:window-x="0"
     inkscape:window-y="25"
     inkscape:window-maximized="0" />
  <metadata
     id="metadata3618">
    <rdf:RDF>
      <cc:Work
         rdf:about="">
        <dc:format>image/svg+xml</dc:format>
        <dc:type
           rdf:resource="http://purl.org/dc/dcmitype/StillImage" />
        <dc:title></dc:title>
      </cc:Work>
    </rdf:RDF>
  </metadata>
  <g
     inkscape:label="Layer 1"
     inkscape:groupmode="layer"
     id="layer1"
     transform="translate(-120.8438,-196.26028)">
    <g
       id="g12733"
       transform="matrix(0.42703774,0,0,0.42703774,-398.51036,-108.02162)">
      <rect
         style="opacity:1;fill:#55d400;fill-opacity:1;stroke:none;stroke-width:0.968408;stroke-linecap:butt;stroke-linejoin:round;stroke-miterlimit:4;stroke-dasharray:none;stroke-dashoffset:0;stroke-opacity:1"
         id="rect12681"
         width="1.3257873"
         height="48.9716"
         x="1228.1615"
         y="735.354"
         ry="0" />
      <g
         id="g12717"
         transform="matrix(0.2959636,0,0,0.2959636,690.47472,433.45946)">
        <g
           id="g12687"
           transform="rotate(21.30761,1818.9727,985.6866)"
           style="fill:#f0a400;fill-opacity:1">
          <path
             id="path12683"
             style="fill:#f0a400;fill-opacity:1;stroke:none;stroke-width:1.25;stroke-linecap:butt;stroke-linejoin:round;stroke-miterlimit:4;stroke-dasharray:none;stroke-dashoffset:0;stroke-opacity:1"
             d="m 1849.1857,955.4736 c -4.6433,-2.07994 -10.2658,-1.21028 -14.0883,2.6123 l -16.1247,16.1247 -16.1247,-16.1247 c -3.8226,-3.82254 -9.4451,-4.69226 -14.0883,-2.6123 -2.0801,4.64335 -1.2103,10.26574 2.6123,14.08828 l 16.1247,16.12471 -16.1247,16.12471 c -3.8226,3.8225 -4.6923,9.445 -2.6123,14.0883 4.6434,2.0801 10.2657,1.2102 14.0883,-2.6123 l 16.1247,-16.12473 16.1247,16.12473 c 3.8225,3.8225 9.4448,4.6923 14.0883,2.6123 2.0799,-4.6433 1.2102,-10.2658 -2.6123,-14.0883 l -16.1248,-16.12471 16.1248,-16.12471 c 3.8225,-3.82258 4.6923,-9.44489 2.6123,-14.08828 z" />
          <path
             id="path12685"
             style="fill:#f0a400;fill-opacity:1;stroke:none;stroke-width:4.72441;stroke-linecap:butt;stroke-linejoin:round;stroke-miterlimit:4;stroke-dasharray:none;stroke-dashoffset:0;stroke-opacity:1"
             d="m 6874.8574,3563.9395 c -17.9679,6.8505 -30.6699,24.2009 -30.6699,44.6328 v 86.1875 H 6758 c -20.4317,0 -37.7824,12.702 -44.6328,30.6699 6.8504,17.9686 24.2011,30.6699 44.6328,30.6699 h 86.1875 v 86.1875 c 0,20.4318 12.702,37.7824 30.6699,44.6328 17.9687,-6.8504 30.6699,-24.201 30.6699,-44.6328 v -86.1875 h 86.1875 c 20.4318,0 37.7821,-12.7013 44.6329,-30.6699 -6.8508,-17.9679 -24.2011,-30.6699 -44.6329,-30.6699 h -86.1875 v -86.1875 c 0,-20.4319 -12.7012,-37.7823 -30.6699,-44.6328 z"
             transform="scale(0.26458333)" />
        </g>
        <g
           id="g12693">
          <path
             id="path12689"
             style="fill:#ffcc00;fill-opacity:1;stroke:none;stroke-width:1.25;stroke-linecap:butt;stroke-linejoin:round;stroke-miterlimit:4;stroke-dasharray:none;stroke-dashoffset:0;stroke-opacity:1"
             d="m 1849.1857,955.4736 c -4.6433,-2.07994 -10.2658,-1.21028 -14.0883,2.6123 l -16.1247,16.1247 -16.1247,-16.1247 c -3.8226,-3.82254 -9.4451,-4.69226 -14.0883,-2.6123 -2.0801,4.64335 -1.2103,10.26574 2.6123,14.08828 l 16.1247,16.12471 -16.1247,16.12471 c -3.8226,3.8225 -4.6923,9.445 -2.6123,14.0883 4.6434,2.0801 10.2657,1.2102 14.0883,-2.6123 l 16.1247,-16.12473 16.1247,16.12473 c 3.8225,3.8225 9.4448,4.6923 14.0883,2.6123 2.0799,-4.6433 1.2102,-10.2658 -2.6123,-14.0883 l -16.1248,-16.12471 16.1248,-16.12471 c 3.8225,-3.82258 4.6923,-9.44489 2.6123,-14.08828 z" />
          <path
             id="path12691"
             style="fill:#ffcc00;fill-opacity:1;stroke:none;stroke-width:4.72441;stroke-linecap:butt;stroke-linejoin:round;stroke-miterlimit:4;stroke-dasharray:none;stroke-dashoffset:0;stroke-opacity:1"
             d="m 6874.8574,3563.9395 c -17.9679,6.8505 -30.6699,24.2009 -30.6699,44.6328 v 86.1875 H 6758 c -20.4317,0 -37.7824,12.702 -44.6328,30.6699 6.8504,17.9686 24.2011,30.6699 44.6328,30.6699 h 86.1875 v 86.1875 c 0,20.4318 12.702,37.7824 30.6699,44.6328 17.9687,-6.8504 30.6699,-24.201 30.6699,-44.6328 v -86.1875 h 86.1875 c 20.4318,0 37.7821,-12.7013 44.6329,-30.6699 -6.8508,-17.9679 -24.2011,-30.6699 -44.6329,-30.6699 h -86.1875 v -86.1875 c 0,-20.4319 -12.7012,-37.7823 -30.6699,-44.6328 z"
             transform="scale(0.26458333)" />
        </g>
        <g
           id="g12707">
          <g
             id="g12699">
            <path
               id="path12695"
               style="fill:#f0a400;fill-opacity:1;stroke:none;stroke-width:0.797973;stroke-linecap:butt;stroke-linejoin:round;stroke-miterlimit:4;stroke-dasharray:none;stroke-dashoffset:0;stroke-opacity:1"
               d="m 1818.9728,953.54236 c -1.9374,1.81253 -3.3069,6.40316 -3.3069,11.8091 v 40.67024 c 0,5.4059 1.3695,9.9966 3.3069,11.8091 1.9375,-1.8125 3.307,-6.4032 3.307,-11.8091 v -40.67024 c 0,-5.40594 -1.3695,-9.99657 -3.307,-11.8091 z"
               sodipodi:nodetypes="csscssc" />
            <path
               id="path12697"
               style="fill:#f0a400;fill-opacity:1;stroke:none;stroke-width:0.797973;stroke-linecap:butt;stroke-linejoin:round;stroke-miterlimit:4;stroke-dasharray:none;stroke-dashoffset:0;stroke-opacity:1"
               d="m 1851.1171,985.68653 c -1.8126,-1.9374 -6.4032,-3.3069 -11.8091,-3.3069 h -40.6703 c -5.4059,0 -9.9966,1.3695 -11.8091,3.3069 1.8125,1.9375 6.4032,3.307 11.8091,3.307 h 40.6703 c 5.4059,0 9.9965,-1.3695 11.8091,-3.307 z"
               sodipodi:nodetypes="csscssc" />
          </g>
          <g
             id="g12705"
             transform="rotate(45,1818.9728,985.68658)">
            <path
               id="path12701"
               style="fill:#f0a400;fill-opacity:1;stroke:none;stroke-width:0.797973;stroke-linecap:butt;stroke-linejoin:round;stroke-miterlimit:4;stroke-dasharray:none;stroke-dashoffset:0;stroke-opacity:1"
               d="m 1818.9728,953.54236 c -1.9374,1.81253 -3.3069,6.40316 -3.3069,11.8091 v 40.67024 c 0,5.4059 1.3695,9.9966 3.3069,11.8091 1.9375,-1.8125 3.307,-6.4032 3.307,-11.8091 v -40.67024 c 0,-5.40594 -1.3695,-9.99657 -3.307,-11.8091 z"
               sodipodi:nodetypes="csscssc" />
            <path
               id="path12703"
               style="fill:#f0a400;fill-opacity:1;stroke:none;stroke-width:0.797973;stroke-linecap:butt;stroke-linejoin:round;stroke-miterlimit:4;stroke-dasharray:none;stroke-dashoffset:0;stroke-opacity:1"
               d="m 1851.1171,985.68653 c -1.8126,-1.9374 -6.4032,-3.3069 -11.8091,-3.3069 h -40.6703 c -5.4059,0 -9.9966,1.3695 -11.8091,3.3069 1.8125,1.9375 6.4032,3.307 11.8091,3.307 h 40.6703 c 5.4059,0 9.9965,-1.3695 11.8091,-3.307 z"
               sodipodi:nodetypes="csscssc" />
          </g>
        </g>
        <g
           id="g12715"
           transform="translate(71.000571,1.1234245e-5)">
          <circle
             style="opacity:1;fill:#f08d00;fill-opacity:1;stroke:none;stroke-width:1.25;stroke-linecap:butt;stroke-linejoin:round;stroke-miterlimit:4;stroke-dasharray:none;stroke-dashoffset:0;stroke-opacity:1"
             id="circle12709"
             cx="1747.9723"
             cy="985.68658"
             r="19.736414" />
          <circle
             style="opacity:1;fill:#ffa508;fill-opacity:1;stroke:none;stroke-width:1.04497;stroke-linecap:butt;stroke-linejoin:round;stroke-miterlimit:4;stroke-dasharray:none;stroke-dashoffset:0;stroke-opacity:1"
             id="circle12711"
             cx="1747.9723"
             cy="985.68658"
             r="16.499189" />
          <circle
             style="opacity:1;fill:#dd8200;fill-opacity:1;stroke:none;stroke-width:0.650491;stroke-linecap:butt;stroke-linejoin:round;stroke-miterlimit:4;stroke-dasharray:none;stroke-dashoffset:0;stroke-opacity:1"
             id="circle12713"
             cx="1747.9723"
             cy="985.68658"
             r="10.270695" />
        </g>
      </g>
      <path
         id="path12719"
         style="opacity:1;fill:#55d400;fill-opacity:1;stroke:none;stroke-width:0.666951;stroke-linecap:butt;stroke-linejoin:round;stroke-miterlimit:4;stroke-dasharray:none;stroke-dashoffset:0;stroke-opacity:1"
         d="m 1219.8468,744.56285 h 4.8446 c 1.4182,0 2.7952,1.1497 3.0755,2.56792 l 0.3946,1.99649 h -4.8446 c -1.4182,0 -2.7952,-1.1497 -3.0755,-2.56792 z"
         sodipodi:nodetypes="csscssc" />
      <path
         id="path12721"
         style="opacity:1;fill:#55d400;fill-opacity:1;stroke:none;stroke-width:0.666951;stroke-linecap:butt;stroke-linejoin:round;stroke-miterlimit:4;stroke-dasharray:none;stroke-dashoffset:0;stroke-opacity:1"
         d="m 1237.802,737.89652 h -4.8446 c -1.4182,0 -2.7952,1.1497 -3.0755,2.56792 l -0.3946,1.99649 h 4.8446 c 1.4182,0 2.7952,-1.1497 3.0755,-2.56792 z"
         sodipodi:nodetypes="csscssc" />
      <path
         id="path12723"
         style="opacity:1;fill:#55d400;fill-opacity:1;stroke:none;stroke-width:0.666951;stroke-linecap:butt;stroke-linejoin:round;stroke-miterlimit:4;stroke-dasharray:none;stroke-dashoffset:0;stroke-opacity:1"
         d="m 1219.8468,756.01207 h 4.8446 c 1.4182,0 2.7952,1.1497 3.0755,2.56792 l 0.3946,1.99649 h -4.8446 c -1.4182,0 -2.7952,-1.1497 -3.0755,-2.56792 z"
         sodipodi:nodetypes="csscssc" />
      <path
         id="path12725"
         style="opacity:1;fill:#55d400;fill-opacity:1;stroke:none;stroke-width:0.666951;stroke-linecap:butt;stroke-linejoin:round;stroke-miterlimit:4;stroke-dasharray:none;stroke-dashoffset:0;stroke-opacity:1"
         d="m 1237.802,750.10317 h -4.8446 c -1.4182,0 -2.7952,1.1497 -3.0755,2.56792 l -0.3946,1.99649 h 4.8446 c 1.4182,0 2.7952,-1.1497 3.0755,-2.56792 z"
         sodipodi:nodetypes="csscssc" />
      <path
         id="path12727"
         style="opacity:1;fill:#55d400;fill-opacity:1;stroke:none;stroke-width:0.666951;stroke-linecap:butt;stroke-linejoin:round;stroke-miterlimit:4;stroke-dasharray:none;stroke-dashoffset:0;stroke-opacity:1"
         d="m 1237.802,761.20568 h -4.8446 c -1.4182,0 -2.7952,1.1497 -3.0755,2.56792 l -0.3946,1.99649 h 4.8446 c 1.4182,0 2.7952,-1.1497 3.0755,-2.56792 z"
         sodipodi:nodetypes="csscssc" />
      <path
         id="path12729"
         style="opacity:1;fill:#55d400;fill-opacity:1;stroke:none;stroke-width:0.666951;stroke-linecap:butt;stroke-linejoin:round;stroke-miterlimit:4;stroke-dasharray:none;stroke-dashoffset:0;stroke-opacity:1"
         d="m 1219.8468,767.45073 h 4.8446 c 1.4182,0 2.7952,1.1497 3.0755,2.56792 l 0.3946,1.99649 h -4.8446 c -1.4182,0 -2.7952,-1.1497 -3.0755,-2.56792 z"
         sodipodi:nodetypes="csscssc" />
      <path
         id="path12731"
         style="opacity:1;fill:#55d400;fill-opacity:1;stroke:none;stroke-width:0.666951;stroke-linecap:butt;stroke-linejoin:round;stroke-miterlimit:4;stroke-dasharray:none;stroke-dashoffset:0;stroke-opacity:1"
         d="m 1237.802,772.7715 h -4.8446 c -1.4182,0 -2.7952,1.1497 -3.0755,2.56792 l -0.3946,1.99649 h 4.8446 c 1.4182,0 2.7952,-1.1497 3.0755,-2.56792 z"
         sodipodi:nodetypes="csscssc" />
    </g>
  </g>
</svg>
